%TF.GenerationSoftware,KiCad,Pcbnew,8.0.4*%
%TF.CreationDate,2024-11-14T23:53:25+02:00*%
%TF.ProjectId,sienikontrolleri,7369656e-696b-46f6-9e74-726f6c6c6572,rev?*%
%TF.SameCoordinates,Original*%
%TF.FileFunction,Legend,Top*%
%TF.FilePolarity,Positive*%
%FSLAX46Y46*%
G04 Gerber Fmt 4.6, Leading zero omitted, Abs format (unit mm)*
G04 Created by KiCad (PCBNEW 8.0.4) date 2024-11-14 23:53:25*
%MOMM*%
%LPD*%
G01*
G04 APERTURE LIST*
%ADD10C,0.500000*%
%ADD11C,0.100000*%
%ADD12C,0.150000*%
%ADD13C,0.120000*%
%ADD14C,0.127000*%
%ADD15C,0.200000*%
%ADD16C,0.152400*%
%ADD17C,0.508000*%
G04 APERTURE END LIST*
D10*
X119538761Y-70952381D02*
X119634000Y-71047619D01*
X119634000Y-71047619D02*
X119729238Y-71333333D01*
X119729238Y-71333333D02*
X119729238Y-71523809D01*
X119729238Y-71523809D02*
X119634000Y-71809524D01*
X119634000Y-71809524D02*
X119443523Y-72000000D01*
X119443523Y-72000000D02*
X119253047Y-72095238D01*
X119253047Y-72095238D02*
X118872095Y-72190476D01*
X118872095Y-72190476D02*
X118586380Y-72190476D01*
X118586380Y-72190476D02*
X118205428Y-72095238D01*
X118205428Y-72095238D02*
X118014952Y-72000000D01*
X118014952Y-72000000D02*
X117824476Y-71809524D01*
X117824476Y-71809524D02*
X117729238Y-71523809D01*
X117729238Y-71523809D02*
X117729238Y-71333333D01*
X117729238Y-71333333D02*
X117824476Y-71047619D01*
X117824476Y-71047619D02*
X117919714Y-70952381D01*
X117729238Y-70380952D02*
X117729238Y-69238095D01*
X119729238Y-69809524D02*
X117729238Y-69809524D01*
X119729238Y-67428571D02*
X118776857Y-68095238D01*
X119729238Y-68571428D02*
X117729238Y-68571428D01*
X117729238Y-68571428D02*
X117729238Y-67809523D01*
X117729238Y-67809523D02*
X117824476Y-67619047D01*
X117824476Y-67619047D02*
X117919714Y-67523809D01*
X117919714Y-67523809D02*
X118110190Y-67428571D01*
X118110190Y-67428571D02*
X118395904Y-67428571D01*
X118395904Y-67428571D02*
X118586380Y-67523809D01*
X118586380Y-67523809D02*
X118681619Y-67619047D01*
X118681619Y-67619047D02*
X118776857Y-67809523D01*
X118776857Y-67809523D02*
X118776857Y-68571428D01*
X119729238Y-65619047D02*
X119729238Y-66571428D01*
X119729238Y-66571428D02*
X117729238Y-66571428D01*
X132622133Y-49174304D02*
X132622133Y-47650495D01*
D11*
X48348438Y-31887506D02*
X48300819Y-31982744D01*
X48300819Y-31982744D02*
X48300819Y-32125601D01*
X48300819Y-32125601D02*
X48348438Y-32268458D01*
X48348438Y-32268458D02*
X48443676Y-32363696D01*
X48443676Y-32363696D02*
X48538914Y-32411315D01*
X48538914Y-32411315D02*
X48729390Y-32458934D01*
X48729390Y-32458934D02*
X48872247Y-32458934D01*
X48872247Y-32458934D02*
X49062723Y-32411315D01*
X49062723Y-32411315D02*
X49157961Y-32363696D01*
X49157961Y-32363696D02*
X49253200Y-32268458D01*
X49253200Y-32268458D02*
X49300819Y-32125601D01*
X49300819Y-32125601D02*
X49300819Y-32030363D01*
X49300819Y-32030363D02*
X49253200Y-31887506D01*
X49253200Y-31887506D02*
X49205580Y-31839887D01*
X49205580Y-31839887D02*
X48872247Y-31839887D01*
X48872247Y-31839887D02*
X48872247Y-32030363D01*
X49300819Y-31411315D02*
X48300819Y-31411315D01*
X48300819Y-31411315D02*
X49300819Y-30839887D01*
X49300819Y-30839887D02*
X48300819Y-30839887D01*
X49300819Y-30363696D02*
X48300819Y-30363696D01*
X48300819Y-30363696D02*
X48300819Y-30125601D01*
X48300819Y-30125601D02*
X48348438Y-29982744D01*
X48348438Y-29982744D02*
X48443676Y-29887506D01*
X48443676Y-29887506D02*
X48538914Y-29839887D01*
X48538914Y-29839887D02*
X48729390Y-29792268D01*
X48729390Y-29792268D02*
X48872247Y-29792268D01*
X48872247Y-29792268D02*
X49062723Y-29839887D01*
X49062723Y-29839887D02*
X49157961Y-29887506D01*
X49157961Y-29887506D02*
X49253200Y-29982744D01*
X49253200Y-29982744D02*
X49300819Y-30125601D01*
X49300819Y-30125601D02*
X49300819Y-30363696D01*
X48920038Y-49672306D02*
X48872419Y-49767544D01*
X48872419Y-49767544D02*
X48872419Y-49910401D01*
X48872419Y-49910401D02*
X48920038Y-50053258D01*
X48920038Y-50053258D02*
X49015276Y-50148496D01*
X49015276Y-50148496D02*
X49110514Y-50196115D01*
X49110514Y-50196115D02*
X49300990Y-50243734D01*
X49300990Y-50243734D02*
X49443847Y-50243734D01*
X49443847Y-50243734D02*
X49634323Y-50196115D01*
X49634323Y-50196115D02*
X49729561Y-50148496D01*
X49729561Y-50148496D02*
X49824800Y-50053258D01*
X49824800Y-50053258D02*
X49872419Y-49910401D01*
X49872419Y-49910401D02*
X49872419Y-49815163D01*
X49872419Y-49815163D02*
X49824800Y-49672306D01*
X49824800Y-49672306D02*
X49777180Y-49624687D01*
X49777180Y-49624687D02*
X49443847Y-49624687D01*
X49443847Y-49624687D02*
X49443847Y-49815163D01*
X49872419Y-49196115D02*
X48872419Y-49196115D01*
X48872419Y-49196115D02*
X49872419Y-48624687D01*
X49872419Y-48624687D02*
X48872419Y-48624687D01*
X49872419Y-48148496D02*
X48872419Y-48148496D01*
X48872419Y-48148496D02*
X48872419Y-47910401D01*
X48872419Y-47910401D02*
X48920038Y-47767544D01*
X48920038Y-47767544D02*
X49015276Y-47672306D01*
X49015276Y-47672306D02*
X49110514Y-47624687D01*
X49110514Y-47624687D02*
X49300990Y-47577068D01*
X49300990Y-47577068D02*
X49443847Y-47577068D01*
X49443847Y-47577068D02*
X49634323Y-47624687D01*
X49634323Y-47624687D02*
X49729561Y-47672306D01*
X49729561Y-47672306D02*
X49824800Y-47767544D01*
X49824800Y-47767544D02*
X49872419Y-47910401D01*
X49872419Y-47910401D02*
X49872419Y-48148496D01*
D10*
X77538761Y-70380952D02*
X77634000Y-70476190D01*
X77634000Y-70476190D02*
X77729238Y-70761904D01*
X77729238Y-70761904D02*
X77729238Y-70952380D01*
X77729238Y-70952380D02*
X77634000Y-71238095D01*
X77634000Y-71238095D02*
X77443523Y-71428571D01*
X77443523Y-71428571D02*
X77253047Y-71523809D01*
X77253047Y-71523809D02*
X76872095Y-71619047D01*
X76872095Y-71619047D02*
X76586380Y-71619047D01*
X76586380Y-71619047D02*
X76205428Y-71523809D01*
X76205428Y-71523809D02*
X76014952Y-71428571D01*
X76014952Y-71428571D02*
X75824476Y-71238095D01*
X75824476Y-71238095D02*
X75729238Y-70952380D01*
X75729238Y-70952380D02*
X75729238Y-70761904D01*
X75729238Y-70761904D02*
X75824476Y-70476190D01*
X75824476Y-70476190D02*
X75919714Y-70380952D01*
X75729238Y-69142857D02*
X75729238Y-68761904D01*
X75729238Y-68761904D02*
X75824476Y-68571428D01*
X75824476Y-68571428D02*
X76014952Y-68380952D01*
X76014952Y-68380952D02*
X76395904Y-68285714D01*
X76395904Y-68285714D02*
X77062571Y-68285714D01*
X77062571Y-68285714D02*
X77443523Y-68380952D01*
X77443523Y-68380952D02*
X77634000Y-68571428D01*
X77634000Y-68571428D02*
X77729238Y-68761904D01*
X77729238Y-68761904D02*
X77729238Y-69142857D01*
X77729238Y-69142857D02*
X77634000Y-69333333D01*
X77634000Y-69333333D02*
X77443523Y-69523809D01*
X77443523Y-69523809D02*
X77062571Y-69619047D01*
X77062571Y-69619047D02*
X76395904Y-69619047D01*
X76395904Y-69619047D02*
X76014952Y-69523809D01*
X76014952Y-69523809D02*
X75824476Y-69333333D01*
X75824476Y-69333333D02*
X75729238Y-69142857D01*
X75919714Y-67523809D02*
X75824476Y-67428571D01*
X75824476Y-67428571D02*
X75729238Y-67238095D01*
X75729238Y-67238095D02*
X75729238Y-66761904D01*
X75729238Y-66761904D02*
X75824476Y-66571428D01*
X75824476Y-66571428D02*
X75919714Y-66476190D01*
X75919714Y-66476190D02*
X76110190Y-66380952D01*
X76110190Y-66380952D02*
X76300666Y-66380952D01*
X76300666Y-66380952D02*
X76586380Y-66476190D01*
X76586380Y-66476190D02*
X77729238Y-67619047D01*
X77729238Y-67619047D02*
X77729238Y-66380952D01*
D11*
X59974800Y-50243734D02*
X60022419Y-50100877D01*
X60022419Y-50100877D02*
X60022419Y-49862782D01*
X60022419Y-49862782D02*
X59974800Y-49767544D01*
X59974800Y-49767544D02*
X59927180Y-49719925D01*
X59927180Y-49719925D02*
X59831942Y-49672306D01*
X59831942Y-49672306D02*
X59736704Y-49672306D01*
X59736704Y-49672306D02*
X59641466Y-49719925D01*
X59641466Y-49719925D02*
X59593847Y-49767544D01*
X59593847Y-49767544D02*
X59546228Y-49862782D01*
X59546228Y-49862782D02*
X59498609Y-50053258D01*
X59498609Y-50053258D02*
X59450990Y-50148496D01*
X59450990Y-50148496D02*
X59403371Y-50196115D01*
X59403371Y-50196115D02*
X59308133Y-50243734D01*
X59308133Y-50243734D02*
X59212895Y-50243734D01*
X59212895Y-50243734D02*
X59117657Y-50196115D01*
X59117657Y-50196115D02*
X59070038Y-50148496D01*
X59070038Y-50148496D02*
X59022419Y-50053258D01*
X59022419Y-50053258D02*
X59022419Y-49815163D01*
X59022419Y-49815163D02*
X59070038Y-49672306D01*
X60022419Y-48672306D02*
X59546228Y-49005639D01*
X60022419Y-49243734D02*
X59022419Y-49243734D01*
X59022419Y-49243734D02*
X59022419Y-48862782D01*
X59022419Y-48862782D02*
X59070038Y-48767544D01*
X59070038Y-48767544D02*
X59117657Y-48719925D01*
X59117657Y-48719925D02*
X59212895Y-48672306D01*
X59212895Y-48672306D02*
X59355752Y-48672306D01*
X59355752Y-48672306D02*
X59450990Y-48719925D01*
X59450990Y-48719925D02*
X59498609Y-48767544D01*
X59498609Y-48767544D02*
X59546228Y-48862782D01*
X59546228Y-48862782D02*
X59546228Y-49243734D01*
X59498609Y-48243734D02*
X59498609Y-47910401D01*
X60022419Y-47767544D02*
X60022419Y-48243734D01*
X60022419Y-48243734D02*
X59022419Y-48243734D01*
X59022419Y-48243734D02*
X59022419Y-47767544D01*
X59070038Y-46815163D02*
X59022419Y-46910401D01*
X59022419Y-46910401D02*
X59022419Y-47053258D01*
X59022419Y-47053258D02*
X59070038Y-47196115D01*
X59070038Y-47196115D02*
X59165276Y-47291353D01*
X59165276Y-47291353D02*
X59260514Y-47338972D01*
X59260514Y-47338972D02*
X59450990Y-47386591D01*
X59450990Y-47386591D02*
X59593847Y-47386591D01*
X59593847Y-47386591D02*
X59784323Y-47338972D01*
X59784323Y-47338972D02*
X59879561Y-47291353D01*
X59879561Y-47291353D02*
X59974800Y-47196115D01*
X59974800Y-47196115D02*
X60022419Y-47053258D01*
X60022419Y-47053258D02*
X60022419Y-46958020D01*
X60022419Y-46958020D02*
X59974800Y-46815163D01*
X59974800Y-46815163D02*
X59927180Y-46767544D01*
X59927180Y-46767544D02*
X59593847Y-46767544D01*
X59593847Y-46767544D02*
X59593847Y-46958020D01*
X59927180Y-45005639D02*
X59974800Y-45053258D01*
X59974800Y-45053258D02*
X60022419Y-45196115D01*
X60022419Y-45196115D02*
X60022419Y-45291353D01*
X60022419Y-45291353D02*
X59974800Y-45434210D01*
X59974800Y-45434210D02*
X59879561Y-45529448D01*
X59879561Y-45529448D02*
X59784323Y-45577067D01*
X59784323Y-45577067D02*
X59593847Y-45624686D01*
X59593847Y-45624686D02*
X59450990Y-45624686D01*
X59450990Y-45624686D02*
X59260514Y-45577067D01*
X59260514Y-45577067D02*
X59165276Y-45529448D01*
X59165276Y-45529448D02*
X59070038Y-45434210D01*
X59070038Y-45434210D02*
X59022419Y-45291353D01*
X59022419Y-45291353D02*
X59022419Y-45196115D01*
X59022419Y-45196115D02*
X59070038Y-45053258D01*
X59070038Y-45053258D02*
X59117657Y-45005639D01*
X60022419Y-44100877D02*
X60022419Y-44577067D01*
X60022419Y-44577067D02*
X59022419Y-44577067D01*
X60022419Y-43767543D02*
X59022419Y-43767543D01*
X60022419Y-43196115D02*
X59450990Y-43624686D01*
X59022419Y-43196115D02*
X59593847Y-43767543D01*
X46991466Y-50196115D02*
X46991466Y-49434211D01*
X47372419Y-49815163D02*
X46610514Y-49815163D01*
X46372419Y-48481830D02*
X46372419Y-48958020D01*
X46372419Y-48958020D02*
X46848609Y-49005639D01*
X46848609Y-49005639D02*
X46800990Y-48958020D01*
X46800990Y-48958020D02*
X46753371Y-48862782D01*
X46753371Y-48862782D02*
X46753371Y-48624687D01*
X46753371Y-48624687D02*
X46800990Y-48529449D01*
X46800990Y-48529449D02*
X46848609Y-48481830D01*
X46848609Y-48481830D02*
X46943847Y-48434211D01*
X46943847Y-48434211D02*
X47181942Y-48434211D01*
X47181942Y-48434211D02*
X47277180Y-48481830D01*
X47277180Y-48481830D02*
X47324800Y-48529449D01*
X47324800Y-48529449D02*
X47372419Y-48624687D01*
X47372419Y-48624687D02*
X47372419Y-48862782D01*
X47372419Y-48862782D02*
X47324800Y-48958020D01*
X47324800Y-48958020D02*
X47277180Y-49005639D01*
X46372419Y-48148496D02*
X47372419Y-47815163D01*
X47372419Y-47815163D02*
X46372419Y-47481830D01*
X54994800Y-50243734D02*
X55042419Y-50100877D01*
X55042419Y-50100877D02*
X55042419Y-49862782D01*
X55042419Y-49862782D02*
X54994800Y-49767544D01*
X54994800Y-49767544D02*
X54947180Y-49719925D01*
X54947180Y-49719925D02*
X54851942Y-49672306D01*
X54851942Y-49672306D02*
X54756704Y-49672306D01*
X54756704Y-49672306D02*
X54661466Y-49719925D01*
X54661466Y-49719925D02*
X54613847Y-49767544D01*
X54613847Y-49767544D02*
X54566228Y-49862782D01*
X54566228Y-49862782D02*
X54518609Y-50053258D01*
X54518609Y-50053258D02*
X54470990Y-50148496D01*
X54470990Y-50148496D02*
X54423371Y-50196115D01*
X54423371Y-50196115D02*
X54328133Y-50243734D01*
X54328133Y-50243734D02*
X54232895Y-50243734D01*
X54232895Y-50243734D02*
X54137657Y-50196115D01*
X54137657Y-50196115D02*
X54090038Y-50148496D01*
X54090038Y-50148496D02*
X54042419Y-50053258D01*
X54042419Y-50053258D02*
X54042419Y-49815163D01*
X54042419Y-49815163D02*
X54090038Y-49672306D01*
X55042419Y-48672306D02*
X54566228Y-49005639D01*
X55042419Y-49243734D02*
X54042419Y-49243734D01*
X54042419Y-49243734D02*
X54042419Y-48862782D01*
X54042419Y-48862782D02*
X54090038Y-48767544D01*
X54090038Y-48767544D02*
X54137657Y-48719925D01*
X54137657Y-48719925D02*
X54232895Y-48672306D01*
X54232895Y-48672306D02*
X54375752Y-48672306D01*
X54375752Y-48672306D02*
X54470990Y-48719925D01*
X54470990Y-48719925D02*
X54518609Y-48767544D01*
X54518609Y-48767544D02*
X54566228Y-48862782D01*
X54566228Y-48862782D02*
X54566228Y-49243734D01*
X54518609Y-48243734D02*
X54518609Y-47910401D01*
X55042419Y-47767544D02*
X55042419Y-48243734D01*
X55042419Y-48243734D02*
X54042419Y-48243734D01*
X54042419Y-48243734D02*
X54042419Y-47767544D01*
X54090038Y-46815163D02*
X54042419Y-46910401D01*
X54042419Y-46910401D02*
X54042419Y-47053258D01*
X54042419Y-47053258D02*
X54090038Y-47196115D01*
X54090038Y-47196115D02*
X54185276Y-47291353D01*
X54185276Y-47291353D02*
X54280514Y-47338972D01*
X54280514Y-47338972D02*
X54470990Y-47386591D01*
X54470990Y-47386591D02*
X54613847Y-47386591D01*
X54613847Y-47386591D02*
X54804323Y-47338972D01*
X54804323Y-47338972D02*
X54899561Y-47291353D01*
X54899561Y-47291353D02*
X54994800Y-47196115D01*
X54994800Y-47196115D02*
X55042419Y-47053258D01*
X55042419Y-47053258D02*
X55042419Y-46958020D01*
X55042419Y-46958020D02*
X54994800Y-46815163D01*
X54994800Y-46815163D02*
X54947180Y-46767544D01*
X54947180Y-46767544D02*
X54613847Y-46767544D01*
X54613847Y-46767544D02*
X54613847Y-46958020D01*
X55042419Y-45577067D02*
X54042419Y-45577067D01*
X54042419Y-45577067D02*
X54042419Y-45338972D01*
X54042419Y-45338972D02*
X54090038Y-45196115D01*
X54090038Y-45196115D02*
X54185276Y-45100877D01*
X54185276Y-45100877D02*
X54280514Y-45053258D01*
X54280514Y-45053258D02*
X54470990Y-45005639D01*
X54470990Y-45005639D02*
X54613847Y-45005639D01*
X54613847Y-45005639D02*
X54804323Y-45053258D01*
X54804323Y-45053258D02*
X54899561Y-45100877D01*
X54899561Y-45100877D02*
X54994800Y-45196115D01*
X54994800Y-45196115D02*
X55042419Y-45338972D01*
X55042419Y-45338972D02*
X55042419Y-45577067D01*
X54756704Y-44624686D02*
X54756704Y-44148496D01*
X55042419Y-44719924D02*
X54042419Y-44386591D01*
X54042419Y-44386591D02*
X55042419Y-44053258D01*
X54042419Y-43862781D02*
X54042419Y-43291353D01*
X55042419Y-43577067D02*
X54042419Y-43577067D01*
X54756704Y-43005638D02*
X54756704Y-42529448D01*
X55042419Y-43100876D02*
X54042419Y-42767543D01*
X54042419Y-42767543D02*
X55042419Y-42434210D01*
X62472419Y-40827694D02*
X62472419Y-41303884D01*
X62472419Y-41303884D02*
X61472419Y-41303884D01*
X62186704Y-40541979D02*
X62186704Y-40065789D01*
X62472419Y-40637217D02*
X61472419Y-40303884D01*
X61472419Y-40303884D02*
X62472419Y-39970551D01*
X61472419Y-39780074D02*
X61472419Y-39208646D01*
X62472419Y-39494360D02*
X61472419Y-39494360D01*
X62377180Y-38303884D02*
X62424800Y-38351503D01*
X62424800Y-38351503D02*
X62472419Y-38494360D01*
X62472419Y-38494360D02*
X62472419Y-38589598D01*
X62472419Y-38589598D02*
X62424800Y-38732455D01*
X62424800Y-38732455D02*
X62329561Y-38827693D01*
X62329561Y-38827693D02*
X62234323Y-38875312D01*
X62234323Y-38875312D02*
X62043847Y-38922931D01*
X62043847Y-38922931D02*
X61900990Y-38922931D01*
X61900990Y-38922931D02*
X61710514Y-38875312D01*
X61710514Y-38875312D02*
X61615276Y-38827693D01*
X61615276Y-38827693D02*
X61520038Y-38732455D01*
X61520038Y-38732455D02*
X61472419Y-38589598D01*
X61472419Y-38589598D02*
X61472419Y-38494360D01*
X61472419Y-38494360D02*
X61520038Y-38351503D01*
X61520038Y-38351503D02*
X61567657Y-38303884D01*
X62472419Y-37875312D02*
X61472419Y-37875312D01*
X61948609Y-37875312D02*
X61948609Y-37303884D01*
X62472419Y-37303884D02*
X61472419Y-37303884D01*
D10*
X91729238Y-71761904D02*
X89729238Y-71761904D01*
X90681619Y-71761904D02*
X90681619Y-70619047D01*
X91729238Y-70619047D02*
X89729238Y-70619047D01*
X89729238Y-69666666D02*
X91348285Y-69666666D01*
X91348285Y-69666666D02*
X91538761Y-69571428D01*
X91538761Y-69571428D02*
X91634000Y-69476190D01*
X91634000Y-69476190D02*
X91729238Y-69285714D01*
X91729238Y-69285714D02*
X91729238Y-68904761D01*
X91729238Y-68904761D02*
X91634000Y-68714285D01*
X91634000Y-68714285D02*
X91538761Y-68619047D01*
X91538761Y-68619047D02*
X91348285Y-68523809D01*
X91348285Y-68523809D02*
X89729238Y-68523809D01*
X91729238Y-67571428D02*
X89729238Y-67571428D01*
X89729238Y-67571428D02*
X91157809Y-66904761D01*
X91157809Y-66904761D02*
X89729238Y-66238095D01*
X89729238Y-66238095D02*
X91729238Y-66238095D01*
D11*
X55563200Y-32253617D02*
X55610819Y-32110760D01*
X55610819Y-32110760D02*
X55610819Y-31872665D01*
X55610819Y-31872665D02*
X55563200Y-31777427D01*
X55563200Y-31777427D02*
X55515580Y-31729808D01*
X55515580Y-31729808D02*
X55420342Y-31682189D01*
X55420342Y-31682189D02*
X55325104Y-31682189D01*
X55325104Y-31682189D02*
X55229866Y-31729808D01*
X55229866Y-31729808D02*
X55182247Y-31777427D01*
X55182247Y-31777427D02*
X55134628Y-31872665D01*
X55134628Y-31872665D02*
X55087009Y-32063141D01*
X55087009Y-32063141D02*
X55039390Y-32158379D01*
X55039390Y-32158379D02*
X54991771Y-32205998D01*
X54991771Y-32205998D02*
X54896533Y-32253617D01*
X54896533Y-32253617D02*
X54801295Y-32253617D01*
X54801295Y-32253617D02*
X54706057Y-32205998D01*
X54706057Y-32205998D02*
X54658438Y-32158379D01*
X54658438Y-32158379D02*
X54610819Y-32063141D01*
X54610819Y-32063141D02*
X54610819Y-31825046D01*
X54610819Y-31825046D02*
X54658438Y-31682189D01*
X55515580Y-30682189D02*
X55563200Y-30729808D01*
X55563200Y-30729808D02*
X55610819Y-30872665D01*
X55610819Y-30872665D02*
X55610819Y-30967903D01*
X55610819Y-30967903D02*
X55563200Y-31110760D01*
X55563200Y-31110760D02*
X55467961Y-31205998D01*
X55467961Y-31205998D02*
X55372723Y-31253617D01*
X55372723Y-31253617D02*
X55182247Y-31301236D01*
X55182247Y-31301236D02*
X55039390Y-31301236D01*
X55039390Y-31301236D02*
X54848914Y-31253617D01*
X54848914Y-31253617D02*
X54753676Y-31205998D01*
X54753676Y-31205998D02*
X54658438Y-31110760D01*
X54658438Y-31110760D02*
X54610819Y-30967903D01*
X54610819Y-30967903D02*
X54610819Y-30872665D01*
X54610819Y-30872665D02*
X54658438Y-30729808D01*
X54658438Y-30729808D02*
X54706057Y-30682189D01*
X55610819Y-29777427D02*
X55610819Y-30253617D01*
X55610819Y-30253617D02*
X54610819Y-30253617D01*
X51053466Y-32462115D02*
X51053466Y-31700211D01*
X51434419Y-32081163D02*
X50672514Y-32081163D01*
X50434419Y-30747830D02*
X50434419Y-31224020D01*
X50434419Y-31224020D02*
X50910609Y-31271639D01*
X50910609Y-31271639D02*
X50862990Y-31224020D01*
X50862990Y-31224020D02*
X50815371Y-31128782D01*
X50815371Y-31128782D02*
X50815371Y-30890687D01*
X50815371Y-30890687D02*
X50862990Y-30795449D01*
X50862990Y-30795449D02*
X50910609Y-30747830D01*
X50910609Y-30747830D02*
X51005847Y-30700211D01*
X51005847Y-30700211D02*
X51243942Y-30700211D01*
X51243942Y-30700211D02*
X51339180Y-30747830D01*
X51339180Y-30747830D02*
X51386800Y-30795449D01*
X51386800Y-30795449D02*
X51434419Y-30890687D01*
X51434419Y-30890687D02*
X51434419Y-31128782D01*
X51434419Y-31128782D02*
X51386800Y-31224020D01*
X51386800Y-31224020D02*
X51339180Y-31271639D01*
X50434419Y-30414496D02*
X51434419Y-30081163D01*
X51434419Y-30081163D02*
X50434419Y-29747830D01*
X51472419Y-50291353D02*
X51472419Y-49672306D01*
X51472419Y-49672306D02*
X51853371Y-50005639D01*
X51853371Y-50005639D02*
X51853371Y-49862782D01*
X51853371Y-49862782D02*
X51900990Y-49767544D01*
X51900990Y-49767544D02*
X51948609Y-49719925D01*
X51948609Y-49719925D02*
X52043847Y-49672306D01*
X52043847Y-49672306D02*
X52281942Y-49672306D01*
X52281942Y-49672306D02*
X52377180Y-49719925D01*
X52377180Y-49719925D02*
X52424800Y-49767544D01*
X52424800Y-49767544D02*
X52472419Y-49862782D01*
X52472419Y-49862782D02*
X52472419Y-50148496D01*
X52472419Y-50148496D02*
X52424800Y-50243734D01*
X52424800Y-50243734D02*
X52377180Y-50291353D01*
X51472419Y-49386591D02*
X52472419Y-49053258D01*
X52472419Y-49053258D02*
X51472419Y-48719925D01*
X51472419Y-48481829D02*
X51472419Y-47862782D01*
X51472419Y-47862782D02*
X51853371Y-48196115D01*
X51853371Y-48196115D02*
X51853371Y-48053258D01*
X51853371Y-48053258D02*
X51900990Y-47958020D01*
X51900990Y-47958020D02*
X51948609Y-47910401D01*
X51948609Y-47910401D02*
X52043847Y-47862782D01*
X52043847Y-47862782D02*
X52281942Y-47862782D01*
X52281942Y-47862782D02*
X52377180Y-47910401D01*
X52377180Y-47910401D02*
X52424800Y-47958020D01*
X52424800Y-47958020D02*
X52472419Y-48053258D01*
X52472419Y-48053258D02*
X52472419Y-48338972D01*
X52472419Y-48338972D02*
X52424800Y-48434210D01*
X52424800Y-48434210D02*
X52377180Y-48481829D01*
X53063200Y-32301236D02*
X53110819Y-32158379D01*
X53110819Y-32158379D02*
X53110819Y-31920284D01*
X53110819Y-31920284D02*
X53063200Y-31825046D01*
X53063200Y-31825046D02*
X53015580Y-31777427D01*
X53015580Y-31777427D02*
X52920342Y-31729808D01*
X52920342Y-31729808D02*
X52825104Y-31729808D01*
X52825104Y-31729808D02*
X52729866Y-31777427D01*
X52729866Y-31777427D02*
X52682247Y-31825046D01*
X52682247Y-31825046D02*
X52634628Y-31920284D01*
X52634628Y-31920284D02*
X52587009Y-32110760D01*
X52587009Y-32110760D02*
X52539390Y-32205998D01*
X52539390Y-32205998D02*
X52491771Y-32253617D01*
X52491771Y-32253617D02*
X52396533Y-32301236D01*
X52396533Y-32301236D02*
X52301295Y-32301236D01*
X52301295Y-32301236D02*
X52206057Y-32253617D01*
X52206057Y-32253617D02*
X52158438Y-32205998D01*
X52158438Y-32205998D02*
X52110819Y-32110760D01*
X52110819Y-32110760D02*
X52110819Y-31872665D01*
X52110819Y-31872665D02*
X52158438Y-31729808D01*
X53110819Y-31301236D02*
X52110819Y-31301236D01*
X52110819Y-31301236D02*
X52110819Y-31063141D01*
X52110819Y-31063141D02*
X52158438Y-30920284D01*
X52158438Y-30920284D02*
X52253676Y-30825046D01*
X52253676Y-30825046D02*
X52348914Y-30777427D01*
X52348914Y-30777427D02*
X52539390Y-30729808D01*
X52539390Y-30729808D02*
X52682247Y-30729808D01*
X52682247Y-30729808D02*
X52872723Y-30777427D01*
X52872723Y-30777427D02*
X52967961Y-30825046D01*
X52967961Y-30825046D02*
X53063200Y-30920284D01*
X53063200Y-30920284D02*
X53110819Y-31063141D01*
X53110819Y-31063141D02*
X53110819Y-31301236D01*
X52825104Y-30348855D02*
X52825104Y-29872665D01*
X53110819Y-30444093D02*
X52110819Y-30110760D01*
X52110819Y-30110760D02*
X53110819Y-29777427D01*
D10*
X74437238Y-31365676D02*
X74437238Y-30984723D01*
X74437238Y-30984723D02*
X74532476Y-30794247D01*
X74532476Y-30794247D02*
X74722952Y-30603771D01*
X74722952Y-30603771D02*
X75103904Y-30508533D01*
X75103904Y-30508533D02*
X75770571Y-30508533D01*
X75770571Y-30508533D02*
X76151523Y-30603771D01*
X76151523Y-30603771D02*
X76342000Y-30794247D01*
X76342000Y-30794247D02*
X76437238Y-30984723D01*
X76437238Y-30984723D02*
X76437238Y-31365676D01*
X76437238Y-31365676D02*
X76342000Y-31556152D01*
X76342000Y-31556152D02*
X76151523Y-31746628D01*
X76151523Y-31746628D02*
X75770571Y-31841866D01*
X75770571Y-31841866D02*
X75103904Y-31841866D01*
X75103904Y-31841866D02*
X74722952Y-31746628D01*
X74722952Y-31746628D02*
X74532476Y-31556152D01*
X74532476Y-31556152D02*
X74437238Y-31365676D01*
X76437238Y-29651390D02*
X74437238Y-29651390D01*
X76437238Y-28508533D02*
X75294380Y-29365676D01*
X74437238Y-28508533D02*
X75580095Y-29651390D01*
D11*
X57324800Y-39684836D02*
X57372419Y-39541979D01*
X57372419Y-39541979D02*
X57372419Y-39303884D01*
X57372419Y-39303884D02*
X57324800Y-39208646D01*
X57324800Y-39208646D02*
X57277180Y-39161027D01*
X57277180Y-39161027D02*
X57181942Y-39113408D01*
X57181942Y-39113408D02*
X57086704Y-39113408D01*
X57086704Y-39113408D02*
X56991466Y-39161027D01*
X56991466Y-39161027D02*
X56943847Y-39208646D01*
X56943847Y-39208646D02*
X56896228Y-39303884D01*
X56896228Y-39303884D02*
X56848609Y-39494360D01*
X56848609Y-39494360D02*
X56800990Y-39589598D01*
X56800990Y-39589598D02*
X56753371Y-39637217D01*
X56753371Y-39637217D02*
X56658133Y-39684836D01*
X56658133Y-39684836D02*
X56562895Y-39684836D01*
X56562895Y-39684836D02*
X56467657Y-39637217D01*
X56467657Y-39637217D02*
X56420038Y-39589598D01*
X56420038Y-39589598D02*
X56372419Y-39494360D01*
X56372419Y-39494360D02*
X56372419Y-39256265D01*
X56372419Y-39256265D02*
X56420038Y-39113408D01*
X57372419Y-38684836D02*
X56372419Y-38684836D01*
X56372419Y-38684836D02*
X56372419Y-38446741D01*
X56372419Y-38446741D02*
X56420038Y-38303884D01*
X56420038Y-38303884D02*
X56515276Y-38208646D01*
X56515276Y-38208646D02*
X56610514Y-38161027D01*
X56610514Y-38161027D02*
X56800990Y-38113408D01*
X56800990Y-38113408D02*
X56943847Y-38113408D01*
X56943847Y-38113408D02*
X57134323Y-38161027D01*
X57134323Y-38161027D02*
X57229561Y-38208646D01*
X57229561Y-38208646D02*
X57324800Y-38303884D01*
X57324800Y-38303884D02*
X57372419Y-38446741D01*
X57372419Y-38446741D02*
X57372419Y-38684836D01*
X57086704Y-37732455D02*
X57086704Y-37256265D01*
X57372419Y-37827693D02*
X56372419Y-37494360D01*
X56372419Y-37494360D02*
X57372419Y-37161027D01*
D10*
X76437238Y-48580609D02*
X75103904Y-47532990D01*
X75103904Y-48580609D02*
X76437238Y-47532990D01*
D11*
X57572419Y-50196115D02*
X56572419Y-50196115D01*
X57572419Y-49719925D02*
X56572419Y-49719925D01*
X56572419Y-49719925D02*
X57572419Y-49148497D01*
X57572419Y-49148497D02*
X56572419Y-49148497D01*
X56572419Y-48815163D02*
X56572419Y-48243735D01*
X57572419Y-48529449D02*
X56572419Y-48529449D01*
X57048609Y-47910401D02*
X57048609Y-47577068D01*
X57572419Y-47434211D02*
X57572419Y-47910401D01*
X57572419Y-47910401D02*
X56572419Y-47910401D01*
X56572419Y-47910401D02*
X56572419Y-47434211D01*
X57572419Y-46434211D02*
X57096228Y-46767544D01*
X57572419Y-47005639D02*
X56572419Y-47005639D01*
X56572419Y-47005639D02*
X56572419Y-46624687D01*
X56572419Y-46624687D02*
X56620038Y-46529449D01*
X56620038Y-46529449D02*
X56667657Y-46481830D01*
X56667657Y-46481830D02*
X56762895Y-46434211D01*
X56762895Y-46434211D02*
X56905752Y-46434211D01*
X56905752Y-46434211D02*
X57000990Y-46481830D01*
X57000990Y-46481830D02*
X57048609Y-46529449D01*
X57048609Y-46529449D02*
X57096228Y-46624687D01*
X57096228Y-46624687D02*
X57096228Y-47005639D01*
X57572419Y-45434211D02*
X57096228Y-45767544D01*
X57572419Y-46005639D02*
X56572419Y-46005639D01*
X56572419Y-46005639D02*
X56572419Y-45624687D01*
X56572419Y-45624687D02*
X56620038Y-45529449D01*
X56620038Y-45529449D02*
X56667657Y-45481830D01*
X56667657Y-45481830D02*
X56762895Y-45434211D01*
X56762895Y-45434211D02*
X56905752Y-45434211D01*
X56905752Y-45434211D02*
X57000990Y-45481830D01*
X57000990Y-45481830D02*
X57048609Y-45529449D01*
X57048609Y-45529449D02*
X57096228Y-45624687D01*
X57096228Y-45624687D02*
X57096228Y-46005639D01*
X56572419Y-45005639D02*
X57381942Y-45005639D01*
X57381942Y-45005639D02*
X57477180Y-44958020D01*
X57477180Y-44958020D02*
X57524800Y-44910401D01*
X57524800Y-44910401D02*
X57572419Y-44815163D01*
X57572419Y-44815163D02*
X57572419Y-44624687D01*
X57572419Y-44624687D02*
X57524800Y-44529449D01*
X57524800Y-44529449D02*
X57477180Y-44481830D01*
X57477180Y-44481830D02*
X57381942Y-44434211D01*
X57381942Y-44434211D02*
X56572419Y-44434211D01*
X57572419Y-43958020D02*
X56572419Y-43958020D01*
X56572419Y-43958020D02*
X56572419Y-43577068D01*
X56572419Y-43577068D02*
X56620038Y-43481830D01*
X56620038Y-43481830D02*
X56667657Y-43434211D01*
X56667657Y-43434211D02*
X56762895Y-43386592D01*
X56762895Y-43386592D02*
X56905752Y-43386592D01*
X56905752Y-43386592D02*
X57000990Y-43434211D01*
X57000990Y-43434211D02*
X57048609Y-43481830D01*
X57048609Y-43481830D02*
X57096228Y-43577068D01*
X57096228Y-43577068D02*
X57096228Y-43958020D01*
X56572419Y-43100877D02*
X56572419Y-42529449D01*
X57572419Y-42815163D02*
X56572419Y-42815163D01*
D10*
X132672933Y-31343504D02*
X132672933Y-29819695D01*
X133434838Y-30581599D02*
X131911028Y-30581599D01*
D11*
X59824800Y-39637217D02*
X59872419Y-39494360D01*
X59872419Y-39494360D02*
X59872419Y-39256265D01*
X59872419Y-39256265D02*
X59824800Y-39161027D01*
X59824800Y-39161027D02*
X59777180Y-39113408D01*
X59777180Y-39113408D02*
X59681942Y-39065789D01*
X59681942Y-39065789D02*
X59586704Y-39065789D01*
X59586704Y-39065789D02*
X59491466Y-39113408D01*
X59491466Y-39113408D02*
X59443847Y-39161027D01*
X59443847Y-39161027D02*
X59396228Y-39256265D01*
X59396228Y-39256265D02*
X59348609Y-39446741D01*
X59348609Y-39446741D02*
X59300990Y-39541979D01*
X59300990Y-39541979D02*
X59253371Y-39589598D01*
X59253371Y-39589598D02*
X59158133Y-39637217D01*
X59158133Y-39637217D02*
X59062895Y-39637217D01*
X59062895Y-39637217D02*
X58967657Y-39589598D01*
X58967657Y-39589598D02*
X58920038Y-39541979D01*
X58920038Y-39541979D02*
X58872419Y-39446741D01*
X58872419Y-39446741D02*
X58872419Y-39208646D01*
X58872419Y-39208646D02*
X58920038Y-39065789D01*
X59777180Y-38065789D02*
X59824800Y-38113408D01*
X59824800Y-38113408D02*
X59872419Y-38256265D01*
X59872419Y-38256265D02*
X59872419Y-38351503D01*
X59872419Y-38351503D02*
X59824800Y-38494360D01*
X59824800Y-38494360D02*
X59729561Y-38589598D01*
X59729561Y-38589598D02*
X59634323Y-38637217D01*
X59634323Y-38637217D02*
X59443847Y-38684836D01*
X59443847Y-38684836D02*
X59300990Y-38684836D01*
X59300990Y-38684836D02*
X59110514Y-38637217D01*
X59110514Y-38637217D02*
X59015276Y-38589598D01*
X59015276Y-38589598D02*
X58920038Y-38494360D01*
X58920038Y-38494360D02*
X58872419Y-38351503D01*
X58872419Y-38351503D02*
X58872419Y-38256265D01*
X58872419Y-38256265D02*
X58920038Y-38113408D01*
X58920038Y-38113408D02*
X58967657Y-38065789D01*
X59872419Y-37161027D02*
X59872419Y-37637217D01*
X59872419Y-37637217D02*
X58872419Y-37637217D01*
D10*
X103229238Y-71714285D02*
X103229238Y-70571428D01*
X105229238Y-71142857D02*
X103229238Y-71142857D01*
X105229238Y-69904761D02*
X103229238Y-69904761D01*
X103229238Y-69904761D02*
X104657809Y-69238094D01*
X104657809Y-69238094D02*
X103229238Y-68571428D01*
X103229238Y-68571428D02*
X105229238Y-68571428D01*
X105229238Y-67619047D02*
X103229238Y-67619047D01*
X103229238Y-67619047D02*
X103229238Y-66857142D01*
X103229238Y-66857142D02*
X103324476Y-66666666D01*
X103324476Y-66666666D02*
X103419714Y-66571428D01*
X103419714Y-66571428D02*
X103610190Y-66476190D01*
X103610190Y-66476190D02*
X103895904Y-66476190D01*
X103895904Y-66476190D02*
X104086380Y-66571428D01*
X104086380Y-66571428D02*
X104181619Y-66666666D01*
X104181619Y-66666666D02*
X104276857Y-66857142D01*
X104276857Y-66857142D02*
X104276857Y-67619047D01*
D12*
X89784019Y-51488933D02*
X90498304Y-51488933D01*
X90498304Y-51488933D02*
X90641161Y-51536552D01*
X90641161Y-51536552D02*
X90736400Y-51631790D01*
X90736400Y-51631790D02*
X90784019Y-51774647D01*
X90784019Y-51774647D02*
X90784019Y-51869885D01*
X90784019Y-50488933D02*
X90784019Y-51060361D01*
X90784019Y-50774647D02*
X89784019Y-50774647D01*
X89784019Y-50774647D02*
X89926876Y-50869885D01*
X89926876Y-50869885D02*
X90022114Y-50965123D01*
X90022114Y-50965123D02*
X90069733Y-51060361D01*
X66192495Y-44755600D02*
X66335352Y-44803219D01*
X66335352Y-44803219D02*
X66573447Y-44803219D01*
X66573447Y-44803219D02*
X66668685Y-44755600D01*
X66668685Y-44755600D02*
X66716304Y-44707980D01*
X66716304Y-44707980D02*
X66763923Y-44612742D01*
X66763923Y-44612742D02*
X66763923Y-44517504D01*
X66763923Y-44517504D02*
X66716304Y-44422266D01*
X66716304Y-44422266D02*
X66668685Y-44374647D01*
X66668685Y-44374647D02*
X66573447Y-44327028D01*
X66573447Y-44327028D02*
X66382971Y-44279409D01*
X66382971Y-44279409D02*
X66287733Y-44231790D01*
X66287733Y-44231790D02*
X66240114Y-44184171D01*
X66240114Y-44184171D02*
X66192495Y-44088933D01*
X66192495Y-44088933D02*
X66192495Y-43993695D01*
X66192495Y-43993695D02*
X66240114Y-43898457D01*
X66240114Y-43898457D02*
X66287733Y-43850838D01*
X66287733Y-43850838D02*
X66382971Y-43803219D01*
X66382971Y-43803219D02*
X66621066Y-43803219D01*
X66621066Y-43803219D02*
X66763923Y-43850838D01*
X67621066Y-43803219D02*
X67430590Y-43803219D01*
X67430590Y-43803219D02*
X67335352Y-43850838D01*
X67335352Y-43850838D02*
X67287733Y-43898457D01*
X67287733Y-43898457D02*
X67192495Y-44041314D01*
X67192495Y-44041314D02*
X67144876Y-44231790D01*
X67144876Y-44231790D02*
X67144876Y-44612742D01*
X67144876Y-44612742D02*
X67192495Y-44707980D01*
X67192495Y-44707980D02*
X67240114Y-44755600D01*
X67240114Y-44755600D02*
X67335352Y-44803219D01*
X67335352Y-44803219D02*
X67525828Y-44803219D01*
X67525828Y-44803219D02*
X67621066Y-44755600D01*
X67621066Y-44755600D02*
X67668685Y-44707980D01*
X67668685Y-44707980D02*
X67716304Y-44612742D01*
X67716304Y-44612742D02*
X67716304Y-44374647D01*
X67716304Y-44374647D02*
X67668685Y-44279409D01*
X67668685Y-44279409D02*
X67621066Y-44231790D01*
X67621066Y-44231790D02*
X67525828Y-44184171D01*
X67525828Y-44184171D02*
X67335352Y-44184171D01*
X67335352Y-44184171D02*
X67240114Y-44231790D01*
X67240114Y-44231790D02*
X67192495Y-44279409D01*
X67192495Y-44279409D02*
X67144876Y-44374647D01*
X107543695Y-64974000D02*
X107686552Y-65021619D01*
X107686552Y-65021619D02*
X107924647Y-65021619D01*
X107924647Y-65021619D02*
X108019885Y-64974000D01*
X108019885Y-64974000D02*
X108067504Y-64926380D01*
X108067504Y-64926380D02*
X108115123Y-64831142D01*
X108115123Y-64831142D02*
X108115123Y-64735904D01*
X108115123Y-64735904D02*
X108067504Y-64640666D01*
X108067504Y-64640666D02*
X108019885Y-64593047D01*
X108019885Y-64593047D02*
X107924647Y-64545428D01*
X107924647Y-64545428D02*
X107734171Y-64497809D01*
X107734171Y-64497809D02*
X107638933Y-64450190D01*
X107638933Y-64450190D02*
X107591314Y-64402571D01*
X107591314Y-64402571D02*
X107543695Y-64307333D01*
X107543695Y-64307333D02*
X107543695Y-64212095D01*
X107543695Y-64212095D02*
X107591314Y-64116857D01*
X107591314Y-64116857D02*
X107638933Y-64069238D01*
X107638933Y-64069238D02*
X107734171Y-64021619D01*
X107734171Y-64021619D02*
X107972266Y-64021619D01*
X107972266Y-64021619D02*
X108115123Y-64069238D01*
X108448457Y-64021619D02*
X109067504Y-64021619D01*
X109067504Y-64021619D02*
X108734171Y-64402571D01*
X108734171Y-64402571D02*
X108877028Y-64402571D01*
X108877028Y-64402571D02*
X108972266Y-64450190D01*
X108972266Y-64450190D02*
X109019885Y-64497809D01*
X109019885Y-64497809D02*
X109067504Y-64593047D01*
X109067504Y-64593047D02*
X109067504Y-64831142D01*
X109067504Y-64831142D02*
X109019885Y-64926380D01*
X109019885Y-64926380D02*
X108972266Y-64974000D01*
X108972266Y-64974000D02*
X108877028Y-65021619D01*
X108877028Y-65021619D02*
X108591314Y-65021619D01*
X108591314Y-65021619D02*
X108496076Y-64974000D01*
X108496076Y-64974000D02*
X108448457Y-64926380D01*
X121869295Y-65075600D02*
X122012152Y-65123219D01*
X122012152Y-65123219D02*
X122250247Y-65123219D01*
X122250247Y-65123219D02*
X122345485Y-65075600D01*
X122345485Y-65075600D02*
X122393104Y-65027980D01*
X122393104Y-65027980D02*
X122440723Y-64932742D01*
X122440723Y-64932742D02*
X122440723Y-64837504D01*
X122440723Y-64837504D02*
X122393104Y-64742266D01*
X122393104Y-64742266D02*
X122345485Y-64694647D01*
X122345485Y-64694647D02*
X122250247Y-64647028D01*
X122250247Y-64647028D02*
X122059771Y-64599409D01*
X122059771Y-64599409D02*
X121964533Y-64551790D01*
X121964533Y-64551790D02*
X121916914Y-64504171D01*
X121916914Y-64504171D02*
X121869295Y-64408933D01*
X121869295Y-64408933D02*
X121869295Y-64313695D01*
X121869295Y-64313695D02*
X121916914Y-64218457D01*
X121916914Y-64218457D02*
X121964533Y-64170838D01*
X121964533Y-64170838D02*
X122059771Y-64123219D01*
X122059771Y-64123219D02*
X122297866Y-64123219D01*
X122297866Y-64123219D02*
X122440723Y-64170838D01*
X123297866Y-64456552D02*
X123297866Y-65123219D01*
X123059771Y-64075600D02*
X122821676Y-64789885D01*
X122821676Y-64789885D02*
X123440723Y-64789885D01*
X122171619Y-61977447D02*
X122171619Y-62453637D01*
X122171619Y-62453637D02*
X121171619Y-62453637D01*
X121647809Y-61644113D02*
X121647809Y-61310780D01*
X122171619Y-61167923D02*
X122171619Y-61644113D01*
X122171619Y-61644113D02*
X121171619Y-61644113D01*
X121171619Y-61644113D02*
X121171619Y-61167923D01*
X122171619Y-60739351D02*
X121171619Y-60739351D01*
X121171619Y-60739351D02*
X121171619Y-60501256D01*
X121171619Y-60501256D02*
X121219238Y-60358399D01*
X121219238Y-60358399D02*
X121314476Y-60263161D01*
X121314476Y-60263161D02*
X121409714Y-60215542D01*
X121409714Y-60215542D02*
X121600190Y-60167923D01*
X121600190Y-60167923D02*
X121743047Y-60167923D01*
X121743047Y-60167923D02*
X121933523Y-60215542D01*
X121933523Y-60215542D02*
X122028761Y-60263161D01*
X122028761Y-60263161D02*
X122124000Y-60358399D01*
X122124000Y-60358399D02*
X122171619Y-60501256D01*
X122171619Y-60501256D02*
X122171619Y-60739351D01*
X121504952Y-59310780D02*
X122171619Y-59310780D01*
X121124000Y-59548875D02*
X121838285Y-59786970D01*
X121838285Y-59786970D02*
X121838285Y-59167923D01*
D11*
X79937219Y-31496219D02*
X79937219Y-30496219D01*
X79937219Y-30496219D02*
X80175314Y-30496219D01*
X80175314Y-30496219D02*
X80318171Y-30543838D01*
X80318171Y-30543838D02*
X80413409Y-30639076D01*
X80413409Y-30639076D02*
X80461028Y-30734314D01*
X80461028Y-30734314D02*
X80508647Y-30924790D01*
X80508647Y-30924790D02*
X80508647Y-31067647D01*
X80508647Y-31067647D02*
X80461028Y-31258123D01*
X80461028Y-31258123D02*
X80413409Y-31353361D01*
X80413409Y-31353361D02*
X80318171Y-31448600D01*
X80318171Y-31448600D02*
X80175314Y-31496219D01*
X80175314Y-31496219D02*
X79937219Y-31496219D01*
X80937219Y-31496219D02*
X80937219Y-30496219D01*
X81365790Y-31448600D02*
X81508647Y-31496219D01*
X81508647Y-31496219D02*
X81746742Y-31496219D01*
X81746742Y-31496219D02*
X81841980Y-31448600D01*
X81841980Y-31448600D02*
X81889599Y-31400980D01*
X81889599Y-31400980D02*
X81937218Y-31305742D01*
X81937218Y-31305742D02*
X81937218Y-31210504D01*
X81937218Y-31210504D02*
X81889599Y-31115266D01*
X81889599Y-31115266D02*
X81841980Y-31067647D01*
X81841980Y-31067647D02*
X81746742Y-31020028D01*
X81746742Y-31020028D02*
X81556266Y-30972409D01*
X81556266Y-30972409D02*
X81461028Y-30924790D01*
X81461028Y-30924790D02*
X81413409Y-30877171D01*
X81413409Y-30877171D02*
X81365790Y-30781933D01*
X81365790Y-30781933D02*
X81365790Y-30686695D01*
X81365790Y-30686695D02*
X81413409Y-30591457D01*
X81413409Y-30591457D02*
X81461028Y-30543838D01*
X81461028Y-30543838D02*
X81556266Y-30496219D01*
X81556266Y-30496219D02*
X81794361Y-30496219D01*
X81794361Y-30496219D02*
X81937218Y-30543838D01*
X82365790Y-31496219D02*
X82365790Y-30496219D01*
X82365790Y-30496219D02*
X82746742Y-30496219D01*
X82746742Y-30496219D02*
X82841980Y-30543838D01*
X82841980Y-30543838D02*
X82889599Y-30591457D01*
X82889599Y-30591457D02*
X82937218Y-30686695D01*
X82937218Y-30686695D02*
X82937218Y-30829552D01*
X82937218Y-30829552D02*
X82889599Y-30924790D01*
X82889599Y-30924790D02*
X82841980Y-30972409D01*
X82841980Y-30972409D02*
X82746742Y-31020028D01*
X82746742Y-31020028D02*
X82365790Y-31020028D01*
X83889599Y-31496219D02*
X83318171Y-31496219D01*
X83603885Y-31496219D02*
X83603885Y-30496219D01*
X83603885Y-30496219D02*
X83508647Y-30639076D01*
X83508647Y-30639076D02*
X83413409Y-30734314D01*
X83413409Y-30734314D02*
X83318171Y-30781933D01*
D10*
X83882875Y-41387385D02*
X83882875Y-36887385D01*
X86454304Y-41387385D02*
X84525732Y-38815957D01*
X86454304Y-36887385D02*
X83882875Y-39458814D01*
X87954304Y-36887385D02*
X89025732Y-41387385D01*
X89025732Y-41387385D02*
X89882875Y-38173100D01*
X89882875Y-38173100D02*
X90740018Y-41387385D01*
X90740018Y-41387385D02*
X91811447Y-36887385D01*
X95454304Y-38387385D02*
X95454304Y-41387385D01*
X94382875Y-36673100D02*
X93311446Y-39887385D01*
X93311446Y-39887385D02*
X96097161Y-39887385D01*
X97811446Y-39673100D02*
X101240018Y-39673100D01*
X105525732Y-36887385D02*
X103382875Y-36887385D01*
X103382875Y-36887385D02*
X103168589Y-39030242D01*
X103168589Y-39030242D02*
X103382875Y-38815957D01*
X103382875Y-38815957D02*
X103811447Y-38601671D01*
X103811447Y-38601671D02*
X104882875Y-38601671D01*
X104882875Y-38601671D02*
X105311447Y-38815957D01*
X105311447Y-38815957D02*
X105525732Y-39030242D01*
X105525732Y-39030242D02*
X105740018Y-39458814D01*
X105740018Y-39458814D02*
X105740018Y-40530242D01*
X105740018Y-40530242D02*
X105525732Y-40958814D01*
X105525732Y-40958814D02*
X105311447Y-41173100D01*
X105311447Y-41173100D02*
X104882875Y-41387385D01*
X104882875Y-41387385D02*
X103811447Y-41387385D01*
X103811447Y-41387385D02*
X103382875Y-41173100D01*
X103382875Y-41173100D02*
X103168589Y-40958814D01*
X109597161Y-36887385D02*
X108740018Y-36887385D01*
X108740018Y-36887385D02*
X108311446Y-37101671D01*
X108311446Y-37101671D02*
X108097161Y-37315957D01*
X108097161Y-37315957D02*
X107668589Y-37958814D01*
X107668589Y-37958814D02*
X107454303Y-38815957D01*
X107454303Y-38815957D02*
X107454303Y-40530242D01*
X107454303Y-40530242D02*
X107668589Y-40958814D01*
X107668589Y-40958814D02*
X107882875Y-41173100D01*
X107882875Y-41173100D02*
X108311446Y-41387385D01*
X108311446Y-41387385D02*
X109168589Y-41387385D01*
X109168589Y-41387385D02*
X109597161Y-41173100D01*
X109597161Y-41173100D02*
X109811446Y-40958814D01*
X109811446Y-40958814D02*
X110025732Y-40530242D01*
X110025732Y-40530242D02*
X110025732Y-39458814D01*
X110025732Y-39458814D02*
X109811446Y-39030242D01*
X109811446Y-39030242D02*
X109597161Y-38815957D01*
X109597161Y-38815957D02*
X109168589Y-38601671D01*
X109168589Y-38601671D02*
X108311446Y-38601671D01*
X108311446Y-38601671D02*
X107882875Y-38815957D01*
X107882875Y-38815957D02*
X107668589Y-39030242D01*
X107668589Y-39030242D02*
X107454303Y-39458814D01*
X111525732Y-36887385D02*
X114311446Y-36887385D01*
X114311446Y-36887385D02*
X112811446Y-38601671D01*
X112811446Y-38601671D02*
X113454303Y-38601671D01*
X113454303Y-38601671D02*
X113882875Y-38815957D01*
X113882875Y-38815957D02*
X114097160Y-39030242D01*
X114097160Y-39030242D02*
X114311446Y-39458814D01*
X114311446Y-39458814D02*
X114311446Y-40530242D01*
X114311446Y-40530242D02*
X114097160Y-40958814D01*
X114097160Y-40958814D02*
X113882875Y-41173100D01*
X113882875Y-41173100D02*
X113454303Y-41387385D01*
X113454303Y-41387385D02*
X112168589Y-41387385D01*
X112168589Y-41387385D02*
X111740017Y-41173100D01*
X111740017Y-41173100D02*
X111525732Y-40958814D01*
X116025731Y-40101671D02*
X118168589Y-40101671D01*
X115597160Y-41387385D02*
X117097160Y-36887385D01*
X117097160Y-36887385D02*
X118597160Y-41387385D01*
X119882874Y-41173100D02*
X120525732Y-41387385D01*
X120525732Y-41387385D02*
X121597160Y-41387385D01*
X121597160Y-41387385D02*
X122025732Y-41173100D01*
X122025732Y-41173100D02*
X122240017Y-40958814D01*
X122240017Y-40958814D02*
X122454303Y-40530242D01*
X122454303Y-40530242D02*
X122454303Y-40101671D01*
X122454303Y-40101671D02*
X122240017Y-39673100D01*
X122240017Y-39673100D02*
X122025732Y-39458814D01*
X122025732Y-39458814D02*
X121597160Y-39244528D01*
X121597160Y-39244528D02*
X120740017Y-39030242D01*
X120740017Y-39030242D02*
X120311446Y-38815957D01*
X120311446Y-38815957D02*
X120097160Y-38601671D01*
X120097160Y-38601671D02*
X119882874Y-38173100D01*
X119882874Y-38173100D02*
X119882874Y-37744528D01*
X119882874Y-37744528D02*
X120097160Y-37315957D01*
X120097160Y-37315957D02*
X120311446Y-37101671D01*
X120311446Y-37101671D02*
X120740017Y-36887385D01*
X120740017Y-36887385D02*
X121811446Y-36887385D01*
X121811446Y-36887385D02*
X122454303Y-37101671D01*
X124168588Y-40101671D02*
X126311446Y-40101671D01*
X123740017Y-41387385D02*
X125240017Y-36887385D01*
X125240017Y-36887385D02*
X126740017Y-41387385D01*
D12*
X80162495Y-65075600D02*
X80305352Y-65123219D01*
X80305352Y-65123219D02*
X80543447Y-65123219D01*
X80543447Y-65123219D02*
X80638685Y-65075600D01*
X80638685Y-65075600D02*
X80686304Y-65027980D01*
X80686304Y-65027980D02*
X80733923Y-64932742D01*
X80733923Y-64932742D02*
X80733923Y-64837504D01*
X80733923Y-64837504D02*
X80686304Y-64742266D01*
X80686304Y-64742266D02*
X80638685Y-64694647D01*
X80638685Y-64694647D02*
X80543447Y-64647028D01*
X80543447Y-64647028D02*
X80352971Y-64599409D01*
X80352971Y-64599409D02*
X80257733Y-64551790D01*
X80257733Y-64551790D02*
X80210114Y-64504171D01*
X80210114Y-64504171D02*
X80162495Y-64408933D01*
X80162495Y-64408933D02*
X80162495Y-64313695D01*
X80162495Y-64313695D02*
X80210114Y-64218457D01*
X80210114Y-64218457D02*
X80257733Y-64170838D01*
X80257733Y-64170838D02*
X80352971Y-64123219D01*
X80352971Y-64123219D02*
X80591066Y-64123219D01*
X80591066Y-64123219D02*
X80733923Y-64170838D01*
X81686304Y-65123219D02*
X81114876Y-65123219D01*
X81400590Y-65123219D02*
X81400590Y-64123219D01*
X81400590Y-64123219D02*
X81305352Y-64266076D01*
X81305352Y-64266076D02*
X81210114Y-64361314D01*
X81210114Y-64361314D02*
X81114876Y-64408933D01*
X136245695Y-26315200D02*
X136388552Y-26362819D01*
X136388552Y-26362819D02*
X136626647Y-26362819D01*
X136626647Y-26362819D02*
X136721885Y-26315200D01*
X136721885Y-26315200D02*
X136769504Y-26267580D01*
X136769504Y-26267580D02*
X136817123Y-26172342D01*
X136817123Y-26172342D02*
X136817123Y-26077104D01*
X136817123Y-26077104D02*
X136769504Y-25981866D01*
X136769504Y-25981866D02*
X136721885Y-25934247D01*
X136721885Y-25934247D02*
X136626647Y-25886628D01*
X136626647Y-25886628D02*
X136436171Y-25839009D01*
X136436171Y-25839009D02*
X136340933Y-25791390D01*
X136340933Y-25791390D02*
X136293314Y-25743771D01*
X136293314Y-25743771D02*
X136245695Y-25648533D01*
X136245695Y-25648533D02*
X136245695Y-25553295D01*
X136245695Y-25553295D02*
X136293314Y-25458057D01*
X136293314Y-25458057D02*
X136340933Y-25410438D01*
X136340933Y-25410438D02*
X136436171Y-25362819D01*
X136436171Y-25362819D02*
X136674266Y-25362819D01*
X136674266Y-25362819D02*
X136817123Y-25410438D01*
X137150457Y-25362819D02*
X137817123Y-25362819D01*
X137817123Y-25362819D02*
X137388552Y-26362819D01*
X100021819Y-56665857D02*
X99545628Y-56999190D01*
X100021819Y-57237285D02*
X99021819Y-57237285D01*
X99021819Y-57237285D02*
X99021819Y-56856333D01*
X99021819Y-56856333D02*
X99069438Y-56761095D01*
X99069438Y-56761095D02*
X99117057Y-56713476D01*
X99117057Y-56713476D02*
X99212295Y-56665857D01*
X99212295Y-56665857D02*
X99355152Y-56665857D01*
X99355152Y-56665857D02*
X99450390Y-56713476D01*
X99450390Y-56713476D02*
X99498009Y-56761095D01*
X99498009Y-56761095D02*
X99545628Y-56856333D01*
X99545628Y-56856333D02*
X99545628Y-57237285D01*
X100021819Y-55713476D02*
X100021819Y-56284904D01*
X100021819Y-55999190D02*
X99021819Y-55999190D01*
X99021819Y-55999190D02*
X99164676Y-56094428D01*
X99164676Y-56094428D02*
X99259914Y-56189666D01*
X99259914Y-56189666D02*
X99307533Y-56284904D01*
X100021819Y-54761095D02*
X100021819Y-55332523D01*
X100021819Y-55046809D02*
X99021819Y-55046809D01*
X99021819Y-55046809D02*
X99164676Y-55142047D01*
X99164676Y-55142047D02*
X99259914Y-55237285D01*
X99259914Y-55237285D02*
X99307533Y-55332523D01*
X67141595Y-25811300D02*
X67284452Y-25858919D01*
X67284452Y-25858919D02*
X67522547Y-25858919D01*
X67522547Y-25858919D02*
X67617785Y-25811300D01*
X67617785Y-25811300D02*
X67665404Y-25763680D01*
X67665404Y-25763680D02*
X67713023Y-25668442D01*
X67713023Y-25668442D02*
X67713023Y-25573204D01*
X67713023Y-25573204D02*
X67665404Y-25477966D01*
X67665404Y-25477966D02*
X67617785Y-25430347D01*
X67617785Y-25430347D02*
X67522547Y-25382728D01*
X67522547Y-25382728D02*
X67332071Y-25335109D01*
X67332071Y-25335109D02*
X67236833Y-25287490D01*
X67236833Y-25287490D02*
X67189214Y-25239871D01*
X67189214Y-25239871D02*
X67141595Y-25144633D01*
X67141595Y-25144633D02*
X67141595Y-25049395D01*
X67141595Y-25049395D02*
X67189214Y-24954157D01*
X67189214Y-24954157D02*
X67236833Y-24906538D01*
X67236833Y-24906538D02*
X67332071Y-24858919D01*
X67332071Y-24858919D02*
X67570166Y-24858919D01*
X67570166Y-24858919D02*
X67713023Y-24906538D01*
X68617785Y-24858919D02*
X68141595Y-24858919D01*
X68141595Y-24858919D02*
X68093976Y-25335109D01*
X68093976Y-25335109D02*
X68141595Y-25287490D01*
X68141595Y-25287490D02*
X68236833Y-25239871D01*
X68236833Y-25239871D02*
X68474928Y-25239871D01*
X68474928Y-25239871D02*
X68570166Y-25287490D01*
X68570166Y-25287490D02*
X68617785Y-25335109D01*
X68617785Y-25335109D02*
X68665404Y-25430347D01*
X68665404Y-25430347D02*
X68665404Y-25668442D01*
X68665404Y-25668442D02*
X68617785Y-25763680D01*
X68617785Y-25763680D02*
X68570166Y-25811300D01*
X68570166Y-25811300D02*
X68474928Y-25858919D01*
X68474928Y-25858919D02*
X68236833Y-25858919D01*
X68236833Y-25858919D02*
X68141595Y-25811300D01*
X68141595Y-25811300D02*
X68093976Y-25763680D01*
X74198166Y-35216919D02*
X74198166Y-35931204D01*
X74198166Y-35931204D02*
X74150547Y-36074061D01*
X74150547Y-36074061D02*
X74055309Y-36169300D01*
X74055309Y-36169300D02*
X73912452Y-36216919D01*
X73912452Y-36216919D02*
X73817214Y-36216919D01*
X74626738Y-35312157D02*
X74674357Y-35264538D01*
X74674357Y-35264538D02*
X74769595Y-35216919D01*
X74769595Y-35216919D02*
X75007690Y-35216919D01*
X75007690Y-35216919D02*
X75102928Y-35264538D01*
X75102928Y-35264538D02*
X75150547Y-35312157D01*
X75150547Y-35312157D02*
X75198166Y-35407395D01*
X75198166Y-35407395D02*
X75198166Y-35502633D01*
X75198166Y-35502633D02*
X75150547Y-35645490D01*
X75150547Y-35645490D02*
X74579119Y-36216919D01*
X74579119Y-36216919D02*
X75198166Y-36216919D01*
X136194895Y-44349200D02*
X136337752Y-44396819D01*
X136337752Y-44396819D02*
X136575847Y-44396819D01*
X136575847Y-44396819D02*
X136671085Y-44349200D01*
X136671085Y-44349200D02*
X136718704Y-44301580D01*
X136718704Y-44301580D02*
X136766323Y-44206342D01*
X136766323Y-44206342D02*
X136766323Y-44111104D01*
X136766323Y-44111104D02*
X136718704Y-44015866D01*
X136718704Y-44015866D02*
X136671085Y-43968247D01*
X136671085Y-43968247D02*
X136575847Y-43920628D01*
X136575847Y-43920628D02*
X136385371Y-43873009D01*
X136385371Y-43873009D02*
X136290133Y-43825390D01*
X136290133Y-43825390D02*
X136242514Y-43777771D01*
X136242514Y-43777771D02*
X136194895Y-43682533D01*
X136194895Y-43682533D02*
X136194895Y-43587295D01*
X136194895Y-43587295D02*
X136242514Y-43492057D01*
X136242514Y-43492057D02*
X136290133Y-43444438D01*
X136290133Y-43444438D02*
X136385371Y-43396819D01*
X136385371Y-43396819D02*
X136623466Y-43396819D01*
X136623466Y-43396819D02*
X136766323Y-43444438D01*
X137337752Y-43825390D02*
X137242514Y-43777771D01*
X137242514Y-43777771D02*
X137194895Y-43730152D01*
X137194895Y-43730152D02*
X137147276Y-43634914D01*
X137147276Y-43634914D02*
X137147276Y-43587295D01*
X137147276Y-43587295D02*
X137194895Y-43492057D01*
X137194895Y-43492057D02*
X137242514Y-43444438D01*
X137242514Y-43444438D02*
X137337752Y-43396819D01*
X137337752Y-43396819D02*
X137528228Y-43396819D01*
X137528228Y-43396819D02*
X137623466Y-43444438D01*
X137623466Y-43444438D02*
X137671085Y-43492057D01*
X137671085Y-43492057D02*
X137718704Y-43587295D01*
X137718704Y-43587295D02*
X137718704Y-43634914D01*
X137718704Y-43634914D02*
X137671085Y-43730152D01*
X137671085Y-43730152D02*
X137623466Y-43777771D01*
X137623466Y-43777771D02*
X137528228Y-43825390D01*
X137528228Y-43825390D02*
X137337752Y-43825390D01*
X137337752Y-43825390D02*
X137242514Y-43873009D01*
X137242514Y-43873009D02*
X137194895Y-43920628D01*
X137194895Y-43920628D02*
X137147276Y-44015866D01*
X137147276Y-44015866D02*
X137147276Y-44206342D01*
X137147276Y-44206342D02*
X137194895Y-44301580D01*
X137194895Y-44301580D02*
X137242514Y-44349200D01*
X137242514Y-44349200D02*
X137337752Y-44396819D01*
X137337752Y-44396819D02*
X137528228Y-44396819D01*
X137528228Y-44396819D02*
X137623466Y-44349200D01*
X137623466Y-44349200D02*
X137671085Y-44301580D01*
X137671085Y-44301580D02*
X137718704Y-44206342D01*
X137718704Y-44206342D02*
X137718704Y-44015866D01*
X137718704Y-44015866D02*
X137671085Y-43920628D01*
X137671085Y-43920628D02*
X137623466Y-43873009D01*
X137623466Y-43873009D02*
X137528228Y-43825390D01*
X94333219Y-56726057D02*
X93857028Y-57059390D01*
X94333219Y-57297485D02*
X93333219Y-57297485D01*
X93333219Y-57297485D02*
X93333219Y-56916533D01*
X93333219Y-56916533D02*
X93380838Y-56821295D01*
X93380838Y-56821295D02*
X93428457Y-56773676D01*
X93428457Y-56773676D02*
X93523695Y-56726057D01*
X93523695Y-56726057D02*
X93666552Y-56726057D01*
X93666552Y-56726057D02*
X93761790Y-56773676D01*
X93761790Y-56773676D02*
X93809409Y-56821295D01*
X93809409Y-56821295D02*
X93857028Y-56916533D01*
X93857028Y-56916533D02*
X93857028Y-57297485D01*
X94333219Y-55773676D02*
X94333219Y-56345104D01*
X94333219Y-56059390D02*
X93333219Y-56059390D01*
X93333219Y-56059390D02*
X93476076Y-56154628D01*
X93476076Y-56154628D02*
X93571314Y-56249866D01*
X93571314Y-56249866D02*
X93618933Y-56345104D01*
X93333219Y-55154628D02*
X93333219Y-55059390D01*
X93333219Y-55059390D02*
X93380838Y-54964152D01*
X93380838Y-54964152D02*
X93428457Y-54916533D01*
X93428457Y-54916533D02*
X93523695Y-54868914D01*
X93523695Y-54868914D02*
X93714171Y-54821295D01*
X93714171Y-54821295D02*
X93952266Y-54821295D01*
X93952266Y-54821295D02*
X94142742Y-54868914D01*
X94142742Y-54868914D02*
X94237980Y-54916533D01*
X94237980Y-54916533D02*
X94285600Y-54964152D01*
X94285600Y-54964152D02*
X94333219Y-55059390D01*
X94333219Y-55059390D02*
X94333219Y-55154628D01*
X94333219Y-55154628D02*
X94285600Y-55249866D01*
X94285600Y-55249866D02*
X94237980Y-55297485D01*
X94237980Y-55297485D02*
X94142742Y-55345104D01*
X94142742Y-55345104D02*
X93952266Y-55392723D01*
X93952266Y-55392723D02*
X93714171Y-55392723D01*
X93714171Y-55392723D02*
X93523695Y-55345104D01*
X93523695Y-55345104D02*
X93428457Y-55297485D01*
X93428457Y-55297485D02*
X93380838Y-55249866D01*
X93380838Y-55249866D02*
X93333219Y-55154628D01*
X86560819Y-62079047D02*
X86560819Y-62555237D01*
X86560819Y-62555237D02*
X85560819Y-62555237D01*
X86037009Y-61745713D02*
X86037009Y-61412380D01*
X86560819Y-61269523D02*
X86560819Y-61745713D01*
X86560819Y-61745713D02*
X85560819Y-61745713D01*
X85560819Y-61745713D02*
X85560819Y-61269523D01*
X86560819Y-60840951D02*
X85560819Y-60840951D01*
X85560819Y-60840951D02*
X85560819Y-60602856D01*
X85560819Y-60602856D02*
X85608438Y-60459999D01*
X85608438Y-60459999D02*
X85703676Y-60364761D01*
X85703676Y-60364761D02*
X85798914Y-60317142D01*
X85798914Y-60317142D02*
X85989390Y-60269523D01*
X85989390Y-60269523D02*
X86132247Y-60269523D01*
X86132247Y-60269523D02*
X86322723Y-60317142D01*
X86322723Y-60317142D02*
X86417961Y-60364761D01*
X86417961Y-60364761D02*
X86513200Y-60459999D01*
X86513200Y-60459999D02*
X86560819Y-60602856D01*
X86560819Y-60602856D02*
X86560819Y-60840951D01*
X86560819Y-59317142D02*
X86560819Y-59888570D01*
X86560819Y-59602856D02*
X85560819Y-59602856D01*
X85560819Y-59602856D02*
X85703676Y-59698094D01*
X85703676Y-59698094D02*
X85798914Y-59793332D01*
X85798914Y-59793332D02*
X85846533Y-59888570D01*
X121562019Y-56649857D02*
X121085828Y-56983190D01*
X121562019Y-57221285D02*
X120562019Y-57221285D01*
X120562019Y-57221285D02*
X120562019Y-56840333D01*
X120562019Y-56840333D02*
X120609638Y-56745095D01*
X120609638Y-56745095D02*
X120657257Y-56697476D01*
X120657257Y-56697476D02*
X120752495Y-56649857D01*
X120752495Y-56649857D02*
X120895352Y-56649857D01*
X120895352Y-56649857D02*
X120990590Y-56697476D01*
X120990590Y-56697476D02*
X121038209Y-56745095D01*
X121038209Y-56745095D02*
X121085828Y-56840333D01*
X121085828Y-56840333D02*
X121085828Y-57221285D01*
X121562019Y-55697476D02*
X121562019Y-56268904D01*
X121562019Y-55983190D02*
X120562019Y-55983190D01*
X120562019Y-55983190D02*
X120704876Y-56078428D01*
X120704876Y-56078428D02*
X120800114Y-56173666D01*
X120800114Y-56173666D02*
X120847733Y-56268904D01*
X120895352Y-54840333D02*
X121562019Y-54840333D01*
X120514400Y-55078428D02*
X121228685Y-55316523D01*
X121228685Y-55316523D02*
X121228685Y-54697476D01*
X128215819Y-56665857D02*
X127739628Y-56999190D01*
X128215819Y-57237285D02*
X127215819Y-57237285D01*
X127215819Y-57237285D02*
X127215819Y-56856333D01*
X127215819Y-56856333D02*
X127263438Y-56761095D01*
X127263438Y-56761095D02*
X127311057Y-56713476D01*
X127311057Y-56713476D02*
X127406295Y-56665857D01*
X127406295Y-56665857D02*
X127549152Y-56665857D01*
X127549152Y-56665857D02*
X127644390Y-56713476D01*
X127644390Y-56713476D02*
X127692009Y-56761095D01*
X127692009Y-56761095D02*
X127739628Y-56856333D01*
X127739628Y-56856333D02*
X127739628Y-57237285D01*
X128215819Y-55713476D02*
X128215819Y-56284904D01*
X128215819Y-55999190D02*
X127215819Y-55999190D01*
X127215819Y-55999190D02*
X127358676Y-56094428D01*
X127358676Y-56094428D02*
X127453914Y-56189666D01*
X127453914Y-56189666D02*
X127501533Y-56284904D01*
X127215819Y-54808714D02*
X127215819Y-55284904D01*
X127215819Y-55284904D02*
X127692009Y-55332523D01*
X127692009Y-55332523D02*
X127644390Y-55284904D01*
X127644390Y-55284904D02*
X127596771Y-55189666D01*
X127596771Y-55189666D02*
X127596771Y-54951571D01*
X127596771Y-54951571D02*
X127644390Y-54856333D01*
X127644390Y-54856333D02*
X127692009Y-54808714D01*
X127692009Y-54808714D02*
X127787247Y-54761095D01*
X127787247Y-54761095D02*
X128025342Y-54761095D01*
X128025342Y-54761095D02*
X128120580Y-54808714D01*
X128120580Y-54808714D02*
X128168200Y-54856333D01*
X128168200Y-54856333D02*
X128215819Y-54951571D01*
X128215819Y-54951571D02*
X128215819Y-55189666D01*
X128215819Y-55189666D02*
X128168200Y-55284904D01*
X128168200Y-55284904D02*
X128120580Y-55332523D01*
X80515619Y-56402266D02*
X80039428Y-56735599D01*
X80515619Y-56973694D02*
X79515619Y-56973694D01*
X79515619Y-56973694D02*
X79515619Y-56592742D01*
X79515619Y-56592742D02*
X79563238Y-56497504D01*
X79563238Y-56497504D02*
X79610857Y-56449885D01*
X79610857Y-56449885D02*
X79706095Y-56402266D01*
X79706095Y-56402266D02*
X79848952Y-56402266D01*
X79848952Y-56402266D02*
X79944190Y-56449885D01*
X79944190Y-56449885D02*
X79991809Y-56497504D01*
X79991809Y-56497504D02*
X80039428Y-56592742D01*
X80039428Y-56592742D02*
X80039428Y-56973694D01*
X80515619Y-55449885D02*
X80515619Y-56021313D01*
X80515619Y-55735599D02*
X79515619Y-55735599D01*
X79515619Y-55735599D02*
X79658476Y-55830837D01*
X79658476Y-55830837D02*
X79753714Y-55926075D01*
X79753714Y-55926075D02*
X79801333Y-56021313D01*
X68220595Y-38747919D02*
X68220595Y-39557442D01*
X68220595Y-39557442D02*
X68268214Y-39652680D01*
X68268214Y-39652680D02*
X68315833Y-39700300D01*
X68315833Y-39700300D02*
X68411071Y-39747919D01*
X68411071Y-39747919D02*
X68601547Y-39747919D01*
X68601547Y-39747919D02*
X68696785Y-39700300D01*
X68696785Y-39700300D02*
X68744404Y-39652680D01*
X68744404Y-39652680D02*
X68792023Y-39557442D01*
X68792023Y-39557442D02*
X68792023Y-38747919D01*
X69792023Y-39747919D02*
X69220595Y-39747919D01*
X69506309Y-39747919D02*
X69506309Y-38747919D01*
X69506309Y-38747919D02*
X69411071Y-38890776D01*
X69411071Y-38890776D02*
X69315833Y-38986014D01*
X69315833Y-38986014D02*
X69220595Y-39033633D01*
X108150819Y-56792857D02*
X107674628Y-57126190D01*
X108150819Y-57364285D02*
X107150819Y-57364285D01*
X107150819Y-57364285D02*
X107150819Y-56983333D01*
X107150819Y-56983333D02*
X107198438Y-56888095D01*
X107198438Y-56888095D02*
X107246057Y-56840476D01*
X107246057Y-56840476D02*
X107341295Y-56792857D01*
X107341295Y-56792857D02*
X107484152Y-56792857D01*
X107484152Y-56792857D02*
X107579390Y-56840476D01*
X107579390Y-56840476D02*
X107627009Y-56888095D01*
X107627009Y-56888095D02*
X107674628Y-56983333D01*
X107674628Y-56983333D02*
X107674628Y-57364285D01*
X108150819Y-55840476D02*
X108150819Y-56411904D01*
X108150819Y-56126190D02*
X107150819Y-56126190D01*
X107150819Y-56126190D02*
X107293676Y-56221428D01*
X107293676Y-56221428D02*
X107388914Y-56316666D01*
X107388914Y-56316666D02*
X107436533Y-56411904D01*
X107246057Y-55459523D02*
X107198438Y-55411904D01*
X107198438Y-55411904D02*
X107150819Y-55316666D01*
X107150819Y-55316666D02*
X107150819Y-55078571D01*
X107150819Y-55078571D02*
X107198438Y-54983333D01*
X107198438Y-54983333D02*
X107246057Y-54935714D01*
X107246057Y-54935714D02*
X107341295Y-54888095D01*
X107341295Y-54888095D02*
X107436533Y-54888095D01*
X107436533Y-54888095D02*
X107579390Y-54935714D01*
X107579390Y-54935714D02*
X108150819Y-55507142D01*
X108150819Y-55507142D02*
X108150819Y-54888095D01*
X48871333Y-57095819D02*
X48538000Y-56619628D01*
X48299905Y-57095819D02*
X48299905Y-56095819D01*
X48299905Y-56095819D02*
X48680857Y-56095819D01*
X48680857Y-56095819D02*
X48776095Y-56143438D01*
X48776095Y-56143438D02*
X48823714Y-56191057D01*
X48823714Y-56191057D02*
X48871333Y-56286295D01*
X48871333Y-56286295D02*
X48871333Y-56429152D01*
X48871333Y-56429152D02*
X48823714Y-56524390D01*
X48823714Y-56524390D02*
X48776095Y-56572009D01*
X48776095Y-56572009D02*
X48680857Y-56619628D01*
X48680857Y-56619628D02*
X48299905Y-56619628D01*
X49776095Y-56095819D02*
X49299905Y-56095819D01*
X49299905Y-56095819D02*
X49252286Y-56572009D01*
X49252286Y-56572009D02*
X49299905Y-56524390D01*
X49299905Y-56524390D02*
X49395143Y-56476771D01*
X49395143Y-56476771D02*
X49633238Y-56476771D01*
X49633238Y-56476771D02*
X49728476Y-56524390D01*
X49728476Y-56524390D02*
X49776095Y-56572009D01*
X49776095Y-56572009D02*
X49823714Y-56667247D01*
X49823714Y-56667247D02*
X49823714Y-56905342D01*
X49823714Y-56905342D02*
X49776095Y-57000580D01*
X49776095Y-57000580D02*
X49728476Y-57048200D01*
X49728476Y-57048200D02*
X49633238Y-57095819D01*
X49633238Y-57095819D02*
X49395143Y-57095819D01*
X49395143Y-57095819D02*
X49299905Y-57048200D01*
X49299905Y-57048200D02*
X49252286Y-57000580D01*
X113737819Y-56792857D02*
X113261628Y-57126190D01*
X113737819Y-57364285D02*
X112737819Y-57364285D01*
X112737819Y-57364285D02*
X112737819Y-56983333D01*
X112737819Y-56983333D02*
X112785438Y-56888095D01*
X112785438Y-56888095D02*
X112833057Y-56840476D01*
X112833057Y-56840476D02*
X112928295Y-56792857D01*
X112928295Y-56792857D02*
X113071152Y-56792857D01*
X113071152Y-56792857D02*
X113166390Y-56840476D01*
X113166390Y-56840476D02*
X113214009Y-56888095D01*
X113214009Y-56888095D02*
X113261628Y-56983333D01*
X113261628Y-56983333D02*
X113261628Y-57364285D01*
X113737819Y-55840476D02*
X113737819Y-56411904D01*
X113737819Y-56126190D02*
X112737819Y-56126190D01*
X112737819Y-56126190D02*
X112880676Y-56221428D01*
X112880676Y-56221428D02*
X112975914Y-56316666D01*
X112975914Y-56316666D02*
X113023533Y-56411904D01*
X112737819Y-55507142D02*
X112737819Y-54888095D01*
X112737819Y-54888095D02*
X113118771Y-55221428D01*
X113118771Y-55221428D02*
X113118771Y-55078571D01*
X113118771Y-55078571D02*
X113166390Y-54983333D01*
X113166390Y-54983333D02*
X113214009Y-54935714D01*
X113214009Y-54935714D02*
X113309247Y-54888095D01*
X113309247Y-54888095D02*
X113547342Y-54888095D01*
X113547342Y-54888095D02*
X113642580Y-54935714D01*
X113642580Y-54935714D02*
X113690200Y-54983333D01*
X113690200Y-54983333D02*
X113737819Y-55078571D01*
X113737819Y-55078571D02*
X113737819Y-55364285D01*
X113737819Y-55364285D02*
X113690200Y-55459523D01*
X113690200Y-55459523D02*
X113642580Y-55507142D01*
X86305819Y-56300666D02*
X85829628Y-56633999D01*
X86305819Y-56872094D02*
X85305819Y-56872094D01*
X85305819Y-56872094D02*
X85305819Y-56491142D01*
X85305819Y-56491142D02*
X85353438Y-56395904D01*
X85353438Y-56395904D02*
X85401057Y-56348285D01*
X85401057Y-56348285D02*
X85496295Y-56300666D01*
X85496295Y-56300666D02*
X85639152Y-56300666D01*
X85639152Y-56300666D02*
X85734390Y-56348285D01*
X85734390Y-56348285D02*
X85782009Y-56395904D01*
X85782009Y-56395904D02*
X85829628Y-56491142D01*
X85829628Y-56491142D02*
X85829628Y-56872094D01*
X85401057Y-55919713D02*
X85353438Y-55872094D01*
X85353438Y-55872094D02*
X85305819Y-55776856D01*
X85305819Y-55776856D02*
X85305819Y-55538761D01*
X85305819Y-55538761D02*
X85353438Y-55443523D01*
X85353438Y-55443523D02*
X85401057Y-55395904D01*
X85401057Y-55395904D02*
X85496295Y-55348285D01*
X85496295Y-55348285D02*
X85591533Y-55348285D01*
X85591533Y-55348285D02*
X85734390Y-55395904D01*
X85734390Y-55395904D02*
X86305819Y-55967332D01*
X86305819Y-55967332D02*
X86305819Y-55348285D01*
X100073619Y-62028247D02*
X100073619Y-62504437D01*
X100073619Y-62504437D02*
X99073619Y-62504437D01*
X99549809Y-61694913D02*
X99549809Y-61361580D01*
X100073619Y-61218723D02*
X100073619Y-61694913D01*
X100073619Y-61694913D02*
X99073619Y-61694913D01*
X99073619Y-61694913D02*
X99073619Y-61218723D01*
X100073619Y-60790151D02*
X99073619Y-60790151D01*
X99073619Y-60790151D02*
X99073619Y-60552056D01*
X99073619Y-60552056D02*
X99121238Y-60409199D01*
X99121238Y-60409199D02*
X99216476Y-60313961D01*
X99216476Y-60313961D02*
X99311714Y-60266342D01*
X99311714Y-60266342D02*
X99502190Y-60218723D01*
X99502190Y-60218723D02*
X99645047Y-60218723D01*
X99645047Y-60218723D02*
X99835523Y-60266342D01*
X99835523Y-60266342D02*
X99930761Y-60313961D01*
X99930761Y-60313961D02*
X100026000Y-60409199D01*
X100026000Y-60409199D02*
X100073619Y-60552056D01*
X100073619Y-60552056D02*
X100073619Y-60790151D01*
X99168857Y-59837770D02*
X99121238Y-59790151D01*
X99121238Y-59790151D02*
X99073619Y-59694913D01*
X99073619Y-59694913D02*
X99073619Y-59456818D01*
X99073619Y-59456818D02*
X99121238Y-59361580D01*
X99121238Y-59361580D02*
X99168857Y-59313961D01*
X99168857Y-59313961D02*
X99264095Y-59266342D01*
X99264095Y-59266342D02*
X99359333Y-59266342D01*
X99359333Y-59266342D02*
X99502190Y-59313961D01*
X99502190Y-59313961D02*
X100073619Y-59885389D01*
X100073619Y-59885389D02*
X100073619Y-59266342D01*
X93878495Y-65075600D02*
X94021352Y-65123219D01*
X94021352Y-65123219D02*
X94259447Y-65123219D01*
X94259447Y-65123219D02*
X94354685Y-65075600D01*
X94354685Y-65075600D02*
X94402304Y-65027980D01*
X94402304Y-65027980D02*
X94449923Y-64932742D01*
X94449923Y-64932742D02*
X94449923Y-64837504D01*
X94449923Y-64837504D02*
X94402304Y-64742266D01*
X94402304Y-64742266D02*
X94354685Y-64694647D01*
X94354685Y-64694647D02*
X94259447Y-64647028D01*
X94259447Y-64647028D02*
X94068971Y-64599409D01*
X94068971Y-64599409D02*
X93973733Y-64551790D01*
X93973733Y-64551790D02*
X93926114Y-64504171D01*
X93926114Y-64504171D02*
X93878495Y-64408933D01*
X93878495Y-64408933D02*
X93878495Y-64313695D01*
X93878495Y-64313695D02*
X93926114Y-64218457D01*
X93926114Y-64218457D02*
X93973733Y-64170838D01*
X93973733Y-64170838D02*
X94068971Y-64123219D01*
X94068971Y-64123219D02*
X94307066Y-64123219D01*
X94307066Y-64123219D02*
X94449923Y-64170838D01*
X94830876Y-64218457D02*
X94878495Y-64170838D01*
X94878495Y-64170838D02*
X94973733Y-64123219D01*
X94973733Y-64123219D02*
X95211828Y-64123219D01*
X95211828Y-64123219D02*
X95307066Y-64170838D01*
X95307066Y-64170838D02*
X95354685Y-64218457D01*
X95354685Y-64218457D02*
X95402304Y-64313695D01*
X95402304Y-64313695D02*
X95402304Y-64408933D01*
X95402304Y-64408933D02*
X95354685Y-64551790D01*
X95354685Y-64551790D02*
X94783257Y-65123219D01*
X94783257Y-65123219D02*
X95402304Y-65123219D01*
X113840419Y-62079047D02*
X113840419Y-62555237D01*
X113840419Y-62555237D02*
X112840419Y-62555237D01*
X113316609Y-61745713D02*
X113316609Y-61412380D01*
X113840419Y-61269523D02*
X113840419Y-61745713D01*
X113840419Y-61745713D02*
X112840419Y-61745713D01*
X112840419Y-61745713D02*
X112840419Y-61269523D01*
X113840419Y-60840951D02*
X112840419Y-60840951D01*
X112840419Y-60840951D02*
X112840419Y-60602856D01*
X112840419Y-60602856D02*
X112888038Y-60459999D01*
X112888038Y-60459999D02*
X112983276Y-60364761D01*
X112983276Y-60364761D02*
X113078514Y-60317142D01*
X113078514Y-60317142D02*
X113268990Y-60269523D01*
X113268990Y-60269523D02*
X113411847Y-60269523D01*
X113411847Y-60269523D02*
X113602323Y-60317142D01*
X113602323Y-60317142D02*
X113697561Y-60364761D01*
X113697561Y-60364761D02*
X113792800Y-60459999D01*
X113792800Y-60459999D02*
X113840419Y-60602856D01*
X113840419Y-60602856D02*
X113840419Y-60840951D01*
X112840419Y-59936189D02*
X112840419Y-59317142D01*
X112840419Y-59317142D02*
X113221371Y-59650475D01*
X113221371Y-59650475D02*
X113221371Y-59507618D01*
X113221371Y-59507618D02*
X113268990Y-59412380D01*
X113268990Y-59412380D02*
X113316609Y-59364761D01*
X113316609Y-59364761D02*
X113411847Y-59317142D01*
X113411847Y-59317142D02*
X113649942Y-59317142D01*
X113649942Y-59317142D02*
X113745180Y-59364761D01*
X113745180Y-59364761D02*
X113792800Y-59412380D01*
X113792800Y-59412380D02*
X113840419Y-59507618D01*
X113840419Y-59507618D02*
X113840419Y-59793332D01*
X113840419Y-59793332D02*
X113792800Y-59888570D01*
X113792800Y-59888570D02*
X113745180Y-59936189D01*
D13*
%TO.C,J1*%
X91329200Y-52485600D02*
X91329200Y-51155600D01*
X92659200Y-52485600D02*
X91329200Y-52485600D01*
X93929200Y-49825600D02*
X114309200Y-49825600D01*
X93929200Y-52485600D02*
X93929200Y-49825600D01*
X93929200Y-52485600D02*
X114309200Y-52485600D01*
X114309200Y-52485600D02*
X114309200Y-49825600D01*
D14*
%TO.C,S6*%
X65982500Y-47117100D02*
X65982500Y-49469100D01*
X66806500Y-45293100D02*
X71158500Y-45293100D01*
X66806500Y-51293100D02*
X71158500Y-51293100D01*
X71982500Y-47117100D02*
X71982500Y-49469100D01*
D15*
X65832500Y-44289100D02*
G75*
G02*
X65632500Y-44289100I-100000J0D01*
G01*
X65632500Y-44289100D02*
G75*
G02*
X65832500Y-44289100I100000J0D01*
G01*
D14*
%TO.C,S3*%
X107400000Y-67824000D02*
X107400000Y-70176000D01*
X108224000Y-66000000D02*
X112576000Y-66000000D01*
X108224000Y-72000000D02*
X112576000Y-72000000D01*
X113400000Y-67824000D02*
X113400000Y-70176000D01*
D15*
X107250000Y-64996000D02*
G75*
G02*
X107050000Y-64996000I-100000J0D01*
G01*
X107050000Y-64996000D02*
G75*
G02*
X107250000Y-64996000I100000J0D01*
G01*
D14*
%TO.C,S4*%
X121700000Y-67824000D02*
X121700000Y-70176000D01*
X122524000Y-66000000D02*
X126876000Y-66000000D01*
X122524000Y-72000000D02*
X126876000Y-72000000D01*
X127700000Y-67824000D02*
X127700000Y-70176000D01*
D15*
X121550000Y-64996000D02*
G75*
G02*
X121350000Y-64996000I-100000J0D01*
G01*
X121350000Y-64996000D02*
G75*
G02*
X121550000Y-64996000I100000J0D01*
G01*
D16*
%TO.C,LED4*%
X123099800Y-60530085D02*
X123099800Y-61470624D01*
X126300200Y-61462397D02*
X126300200Y-60538261D01*
D17*
X125081000Y-64759200D02*
G75*
G02*
X124319000Y-64759200I-381000J0D01*
G01*
X124319000Y-64759200D02*
G75*
G02*
X125081000Y-64759200I381000J0D01*
G01*
%TO.C,DISP1*%
D11*
X78982500Y-29964100D02*
X129282500Y-29964100D01*
X129282500Y-48964100D01*
X78982500Y-48964100D01*
X78982500Y-29964100D01*
D14*
%TO.C,S1*%
X80000000Y-67824000D02*
X80000000Y-70176000D01*
X80824000Y-66000000D02*
X85176000Y-66000000D01*
X80824000Y-72000000D02*
X85176000Y-72000000D01*
X86000000Y-67824000D02*
X86000000Y-70176000D01*
D15*
X79850000Y-64996000D02*
G75*
G02*
X79650000Y-64996000I-100000J0D01*
G01*
X79650000Y-64996000D02*
G75*
G02*
X79850000Y-64996000I100000J0D01*
G01*
D14*
%TO.C,S7*%
X135982500Y-29117100D02*
X135982500Y-31469100D01*
X136806500Y-27293100D02*
X141158500Y-27293100D01*
X136806500Y-33293100D02*
X141158500Y-33293100D01*
X141982500Y-29117100D02*
X141982500Y-31469100D01*
D15*
X135832500Y-26289100D02*
G75*
G02*
X135632500Y-26289100I-100000J0D01*
G01*
X135632500Y-26289100D02*
G75*
G02*
X135832500Y-26289100I100000J0D01*
G01*
D13*
%TO.C,R11*%
X97182000Y-55795936D02*
X97182000Y-56250064D01*
X98652000Y-55795936D02*
X98652000Y-56250064D01*
D14*
%TO.C,S5*%
X65982500Y-29117100D02*
X65982500Y-31469100D01*
X66806500Y-27293100D02*
X71158500Y-27293100D01*
X66806500Y-33293100D02*
X71158500Y-33293100D01*
X71982500Y-29117100D02*
X71982500Y-31469100D01*
D15*
X65832500Y-26289100D02*
G75*
G02*
X65632500Y-26289100I-100000J0D01*
G01*
X65632500Y-26289100D02*
G75*
G02*
X65832500Y-26289100I100000J0D01*
G01*
D13*
%TO.C,J2*%
X73201500Y-36762100D02*
X74531500Y-36762100D01*
X73201500Y-38092100D02*
X73201500Y-36762100D01*
X73201500Y-39362100D02*
X73201500Y-41962100D01*
X73201500Y-39362100D02*
X75861500Y-39362100D01*
X73201500Y-41962100D02*
X75861500Y-41962100D01*
X75861500Y-39362100D02*
X75861500Y-41962100D01*
D14*
%TO.C,S8*%
X135982500Y-47117100D02*
X135982500Y-49469100D01*
X136806500Y-45293100D02*
X141158500Y-45293100D01*
X136806500Y-51293100D02*
X141158500Y-51293100D01*
X141982500Y-47117100D02*
X141982500Y-49469100D01*
D15*
X135832500Y-44289100D02*
G75*
G02*
X135632500Y-44289100I-100000J0D01*
G01*
X135632500Y-44289100D02*
G75*
G02*
X135832500Y-44289100I100000J0D01*
G01*
D13*
%TO.C,R10*%
X94769000Y-55795936D02*
X94769000Y-56250064D01*
X96239000Y-55795936D02*
X96239000Y-56250064D01*
D16*
%TO.C,LED1*%
X81399800Y-60530085D02*
X81399800Y-61470624D01*
X84600200Y-61462397D02*
X84600200Y-60538261D01*
D17*
X83381000Y-64759200D02*
G75*
G02*
X82619000Y-64759200I-381000J0D01*
G01*
X82619000Y-64759200D02*
G75*
G02*
X83381000Y-64759200I381000J0D01*
G01*
D13*
%TO.C,R14*%
X122836000Y-55779936D02*
X122836000Y-56234064D01*
X124306000Y-55779936D02*
X124306000Y-56234064D01*
%TO.C,R15*%
X125376000Y-55795936D02*
X125376000Y-56250064D01*
X126846000Y-55795936D02*
X126846000Y-56250064D01*
%TO.C,R1*%
X81053000Y-55890936D02*
X81053000Y-56345064D01*
X82523000Y-55890936D02*
X82523000Y-56345064D01*
D16*
%TO.C,U1*%
X65604300Y-37413500D02*
X65604300Y-41172700D01*
X65604300Y-41172700D02*
X72360700Y-41172700D01*
X72360700Y-37413500D02*
X65604300Y-37413500D01*
X72360700Y-41172700D02*
X72360700Y-37413500D01*
X64588300Y-42938000D02*
G75*
G02*
X64334300Y-42938000I-127000J0D01*
G01*
X64334300Y-42938000D02*
G75*
G02*
X64588300Y-42938000I127000J0D01*
G01*
D13*
%TO.C,R12*%
X108485000Y-55922936D02*
X108485000Y-56377064D01*
X109955000Y-55922936D02*
X109955000Y-56377064D01*
%TO.C,R5*%
X49265064Y-54256000D02*
X48810936Y-54256000D01*
X49265064Y-55726000D02*
X48810936Y-55726000D01*
%TO.C,R13*%
X110898000Y-55922936D02*
X110898000Y-56377064D01*
X112368000Y-55922936D02*
X112368000Y-56377064D01*
%TO.C,R2*%
X83466000Y-55906936D02*
X83466000Y-56361064D01*
X84936000Y-55906936D02*
X84936000Y-56361064D01*
D16*
%TO.C,LED2*%
X95099800Y-60530085D02*
X95099800Y-61470624D01*
X98300200Y-61462397D02*
X98300200Y-60538261D01*
D17*
X97081000Y-64759200D02*
G75*
G02*
X96319000Y-64759200I-381000J0D01*
G01*
X96319000Y-64759200D02*
G75*
G02*
X97081000Y-64759200I381000J0D01*
G01*
D14*
%TO.C,S2*%
X93700000Y-67824000D02*
X93700000Y-70176000D01*
X94524000Y-66000000D02*
X98876000Y-66000000D01*
X94524000Y-72000000D02*
X98876000Y-72000000D01*
X99700000Y-67824000D02*
X99700000Y-70176000D01*
D15*
X93550000Y-64996000D02*
G75*
G02*
X93350000Y-64996000I-100000J0D01*
G01*
X93350000Y-64996000D02*
G75*
G02*
X93550000Y-64996000I100000J0D01*
G01*
D16*
%TO.C,LED3*%
X108799800Y-60530085D02*
X108799800Y-61470624D01*
X112000200Y-61462397D02*
X112000200Y-60538261D01*
D17*
X110781000Y-64759200D02*
G75*
G02*
X110019000Y-64759200I-381000J0D01*
G01*
X110019000Y-64759200D02*
G75*
G02*
X110781000Y-64759200I381000J0D01*
G01*
%TD*%
M02*
