%TF.GenerationSoftware,KiCad,Pcbnew,8.0.4*%
%TF.CreationDate,2024-11-14T23:53:25+02:00*%
%TF.ProjectId,sienikontrolleri,7369656e-696b-46f6-9e74-726f6c6c6572,rev?*%
%TF.SameCoordinates,Original*%
%TF.FileFunction,Soldermask,Top*%
%TF.FilePolarity,Negative*%
%FSLAX46Y46*%
G04 Gerber Fmt 4.6, Leading zero omitted, Abs format (unit mm)*
G04 Created by KiCad (PCBNEW 8.0.4) date 2024-11-14 23:53:25*
%MOMM*%
%LPD*%
G01*
G04 APERTURE LIST*
G04 Aperture macros list*
%AMRoundRect*
0 Rectangle with rounded corners*
0 $1 Rounding radius*
0 $2 $3 $4 $5 $6 $7 $8 $9 X,Y pos of 4 corners*
0 Add a 4 corners polygon primitive as box body*
4,1,4,$2,$3,$4,$5,$6,$7,$8,$9,$2,$3,0*
0 Add four circle primitives for the rounded corners*
1,1,$1+$1,$2,$3*
1,1,$1+$1,$4,$5*
1,1,$1+$1,$6,$7*
1,1,$1+$1,$8,$9*
0 Add four rect primitives between the rounded corners*
20,1,$1+$1,$2,$3,$4,$5,0*
20,1,$1+$1,$4,$5,$6,$7,0*
20,1,$1+$1,$6,$7,$8,$9,0*
20,1,$1+$1,$8,$9,$2,$3,0*%
G04 Aperture macros list end*
%ADD10C,0.000000*%
%ADD11R,1.700000X1.700000*%
%ADD12O,1.700000X1.700000*%
%ADD13RoundRect,0.102000X-0.754000X-0.754000X0.754000X-0.754000X0.754000X0.754000X-0.754000X0.754000X0*%
%ADD14C,1.712000*%
%ADD15R,2.590800X1.600200*%
%ADD16R,1.041400X1.600200*%
%ADD17C,1.524000*%
%ADD18RoundRect,0.250000X-0.450000X0.350000X-0.450000X-0.350000X0.450000X-0.350000X0.450000X0.350000X0*%
%ADD19R,0.863600X1.549400*%
%ADD20RoundRect,0.250000X0.350000X0.450000X-0.350000X0.450000X-0.350000X-0.450000X0.350000X-0.450000X0*%
%ADD21R,1.350000X1.350000*%
%ADD22O,1.350000X1.350000*%
%ADD23C,1.371600*%
G04 APERTURE END LIST*
D10*
%TO.C,U1*%
G36*
X70582700Y-37197600D02*
G01*
X67382300Y-37197600D01*
X67382300Y-34937000D01*
X70582700Y-34937000D01*
X70582700Y-37197600D01*
G37*
%TD*%
D11*
%TO.C,J1*%
X92659200Y-51155600D03*
D12*
X95199200Y-51155600D03*
X97739200Y-51155600D03*
X100279200Y-51155600D03*
X102819200Y-51155600D03*
X105359200Y-51155600D03*
X107899200Y-51155600D03*
X110439200Y-51155600D03*
X112979200Y-51155600D03*
%TD*%
D13*
%TO.C,S6*%
X65732500Y-46043100D03*
D14*
X72232500Y-46043100D03*
X65732500Y-50543100D03*
X72232500Y-50543100D03*
%TD*%
D13*
%TO.C,S3*%
X107150000Y-66750000D03*
D14*
X113650000Y-66750000D03*
X107150000Y-71250000D03*
X113650000Y-71250000D03*
%TD*%
D13*
%TO.C,S4*%
X121450000Y-66750000D03*
D14*
X127950000Y-66750000D03*
X121450000Y-71250000D03*
X127950000Y-71250000D03*
%TD*%
D15*
%TO.C,LED4*%
X124700000Y-62400000D03*
D16*
X123926800Y-59600000D03*
X125476800Y-59600000D03*
%TD*%
D17*
%TO.C,DISP1*%
X90242500Y-46964100D03*
X92782500Y-46964100D03*
X95322500Y-46964100D03*
X97862500Y-46964100D03*
X100402500Y-46964100D03*
X102942500Y-46964100D03*
X105482500Y-46964100D03*
X108022500Y-46964100D03*
X110562500Y-46964100D03*
X113102500Y-46964100D03*
X115642500Y-46964100D03*
X118182500Y-46964100D03*
%TD*%
D13*
%TO.C,S1*%
X79750000Y-66750000D03*
D14*
X86250000Y-66750000D03*
X79750000Y-71250000D03*
X86250000Y-71250000D03*
%TD*%
D13*
%TO.C,S7*%
X135732500Y-28043100D03*
D14*
X142232500Y-28043100D03*
X135732500Y-32543100D03*
X142232500Y-32543100D03*
%TD*%
D18*
%TO.C,R11*%
X97917000Y-55023000D03*
X97917000Y-57023000D03*
%TD*%
D13*
%TO.C,S5*%
X65732500Y-28043100D03*
D14*
X72232500Y-28043100D03*
X65732500Y-32543100D03*
X72232500Y-32543100D03*
%TD*%
D11*
%TO.C,J2*%
X74531500Y-38092100D03*
D12*
X74531500Y-40632100D03*
%TD*%
D13*
%TO.C,S8*%
X135732500Y-46043100D03*
D14*
X142232500Y-46043100D03*
X135732500Y-50543100D03*
X142232500Y-50543100D03*
%TD*%
D18*
%TO.C,R10*%
X95504000Y-55023000D03*
X95504000Y-57023000D03*
%TD*%
D15*
%TO.C,LED1*%
X83000000Y-62400000D03*
D16*
X82226800Y-59600000D03*
X83776800Y-59600000D03*
%TD*%
D18*
%TO.C,R14*%
X123571000Y-55007000D03*
X123571000Y-57007000D03*
%TD*%
%TO.C,R15*%
X126111000Y-55023000D03*
X126111000Y-57023000D03*
%TD*%
%TO.C,R1*%
X81788000Y-55118000D03*
X81788000Y-57118000D03*
%TD*%
D19*
%TO.C,U1*%
X66682500Y-42518900D03*
X68982500Y-42518900D03*
X71282500Y-42518900D03*
%TD*%
D18*
%TO.C,R12*%
X109220000Y-55150000D03*
X109220000Y-57150000D03*
%TD*%
D20*
%TO.C,R5*%
X50038000Y-54991000D03*
X48038000Y-54991000D03*
%TD*%
D18*
%TO.C,R13*%
X111633000Y-55150000D03*
X111633000Y-57150000D03*
%TD*%
%TO.C,R2*%
X84201000Y-55134000D03*
X84201000Y-57134000D03*
%TD*%
D15*
%TO.C,LED2*%
X96700000Y-62400000D03*
D16*
X95926800Y-59600000D03*
X97476800Y-59600000D03*
%TD*%
D13*
%TO.C,S2*%
X93450000Y-66750000D03*
D14*
X99950000Y-66750000D03*
X93450000Y-71250000D03*
X99950000Y-71250000D03*
%TD*%
D15*
%TO.C,LED3*%
X110400000Y-62400000D03*
D16*
X109626800Y-59600000D03*
X111176800Y-59600000D03*
%TD*%
D21*
%TO.C,GROOVE1*%
X48864000Y-28194000D03*
D22*
X50864000Y-28194000D03*
X52864000Y-28194000D03*
X54864000Y-28194000D03*
%TD*%
D17*
%TO.C,MCU1*%
X47013600Y-36156000D03*
X49340000Y-36156000D03*
X51880000Y-36156000D03*
X54420000Y-36156000D03*
X57013600Y-36156000D03*
X59434538Y-36156000D03*
X62053600Y-36156000D03*
X62053600Y-51396000D03*
X59513600Y-51396000D03*
X57092662Y-51396000D03*
X54420000Y-51396000D03*
X51880000Y-51396000D03*
X49340000Y-51396000D03*
X47013600Y-51396000D03*
%TD*%
D23*
%TO.C,LATCH1*%
X49000000Y-61000000D03*
X51540000Y-61000000D03*
X54080000Y-61000000D03*
X56620000Y-61000000D03*
X59160000Y-61000000D03*
X61700000Y-61000000D03*
X64240000Y-61000000D03*
X66780000Y-61000000D03*
X69320000Y-61000000D03*
X71860000Y-61000000D03*
X71860000Y-69255000D03*
X69320000Y-69255000D03*
X66780000Y-69255000D03*
X64240000Y-69255000D03*
X61700000Y-69255000D03*
X59160000Y-69255000D03*
X56620000Y-69255000D03*
X54080000Y-69255000D03*
X51540000Y-69255000D03*
X49000000Y-69255000D03*
%TD*%
M02*
