%TF.GenerationSoftware,KiCad,Pcbnew,8.0.4*%
%TF.CreationDate,2024-11-14T23:53:26+02:00*%
%TF.ProjectId,sienikontrolleri,7369656e-696b-46f6-9e74-726f6c6c6572,rev?*%
%TF.SameCoordinates,Original*%
%TF.FileFunction,Soldermask,Bot*%
%TF.FilePolarity,Negative*%
%FSLAX46Y46*%
G04 Gerber Fmt 4.6, Leading zero omitted, Abs format (unit mm)*
G04 Created by KiCad (PCBNEW 8.0.4) date 2024-11-14 23:53:26*
%MOMM*%
%LPD*%
G01*
G04 APERTURE LIST*
G04 Aperture macros list*
%AMRoundRect*
0 Rectangle with rounded corners*
0 $1 Rounding radius*
0 $2 $3 $4 $5 $6 $7 $8 $9 X,Y pos of 4 corners*
0 Add a 4 corners polygon primitive as box body*
4,1,4,$2,$3,$4,$5,$6,$7,$8,$9,$2,$3,0*
0 Add four circle primitives for the rounded corners*
1,1,$1+$1,$2,$3*
1,1,$1+$1,$4,$5*
1,1,$1+$1,$6,$7*
1,1,$1+$1,$8,$9*
0 Add four rect primitives between the rounded corners*
20,1,$1+$1,$2,$3,$4,$5,0*
20,1,$1+$1,$4,$5,$6,$7,0*
20,1,$1+$1,$6,$7,$8,$9,0*
20,1,$1+$1,$8,$9,$2,$3,0*%
G04 Aperture macros list end*
%ADD10R,1.700000X1.700000*%
%ADD11O,1.700000X1.700000*%
%ADD12RoundRect,0.102000X-0.754000X-0.754000X0.754000X-0.754000X0.754000X0.754000X-0.754000X0.754000X0*%
%ADD13C,1.712000*%
%ADD14C,1.524000*%
%ADD15R,0.558800X1.981200*%
%ADD16RoundRect,0.250000X-0.450000X0.350000X-0.450000X-0.350000X0.450000X-0.350000X0.450000X0.350000X0*%
%ADD17R,1.981200X0.558800*%
%ADD18R,1.350000X1.350000*%
%ADD19O,1.350000X1.350000*%
%ADD20C,1.371600*%
%ADD21R,1.016000X1.397000*%
%ADD22RoundRect,0.100000X0.637500X0.100000X-0.637500X0.100000X-0.637500X-0.100000X0.637500X-0.100000X0*%
%ADD23R,0.558800X0.635000*%
G04 APERTURE END LIST*
D10*
%TO.C,J1*%
X92659200Y-51155600D03*
D11*
X95199200Y-51155600D03*
X97739200Y-51155600D03*
X100279200Y-51155600D03*
X102819200Y-51155600D03*
X105359200Y-51155600D03*
X107899200Y-51155600D03*
X110439200Y-51155600D03*
X112979200Y-51155600D03*
%TD*%
D12*
%TO.C,S6*%
X65732500Y-46043100D03*
D13*
X72232500Y-46043100D03*
X65732500Y-50543100D03*
X72232500Y-50543100D03*
%TD*%
D12*
%TO.C,S3*%
X107150000Y-66750000D03*
D13*
X113650000Y-66750000D03*
X107150000Y-71250000D03*
X113650000Y-71250000D03*
%TD*%
D12*
%TO.C,S4*%
X121450000Y-66750000D03*
D13*
X127950000Y-66750000D03*
X121450000Y-71250000D03*
X127950000Y-71250000D03*
%TD*%
D14*
%TO.C,DISP1*%
X90242500Y-46964100D03*
X92782500Y-46964100D03*
X95322500Y-46964100D03*
X97862500Y-46964100D03*
X100402500Y-46964100D03*
X102942500Y-46964100D03*
X105482500Y-46964100D03*
X108022500Y-46964100D03*
X110562500Y-46964100D03*
X113102500Y-46964100D03*
X115642500Y-46964100D03*
X118182500Y-46964100D03*
%TD*%
D12*
%TO.C,S1*%
X79750000Y-66750000D03*
D13*
X86250000Y-66750000D03*
X79750000Y-71250000D03*
X86250000Y-71250000D03*
%TD*%
D12*
%TO.C,S7*%
X135732500Y-28043100D03*
D13*
X142232500Y-28043100D03*
X135732500Y-32543100D03*
X142232500Y-32543100D03*
%TD*%
D12*
%TO.C,S5*%
X65732500Y-28043100D03*
D13*
X72232500Y-28043100D03*
X65732500Y-32543100D03*
X72232500Y-32543100D03*
%TD*%
D10*
%TO.C,J2*%
X74531500Y-38092100D03*
D11*
X74531500Y-40632100D03*
%TD*%
D12*
%TO.C,S8*%
X135732500Y-46043100D03*
D13*
X142232500Y-46043100D03*
X135732500Y-50543100D03*
X142232500Y-50543100D03*
%TD*%
D12*
%TO.C,S2*%
X93450000Y-66750000D03*
D13*
X99950000Y-66750000D03*
X93450000Y-71250000D03*
X99950000Y-71250000D03*
%TD*%
D15*
%TO.C,SREG1*%
X55549800Y-72694800D03*
X56819800Y-72694800D03*
X58089800Y-72694800D03*
X59359800Y-72694800D03*
X60629800Y-72694800D03*
X61899800Y-72694800D03*
X63169800Y-72694800D03*
X63169800Y-77622400D03*
X61899800Y-77622400D03*
X60629800Y-77622400D03*
X59359800Y-77622400D03*
X58089800Y-77622400D03*
X56819800Y-77622400D03*
X55549800Y-77622400D03*
%TD*%
D16*
%TO.C,R6*%
X138982500Y-47293100D03*
X138982500Y-49293100D03*
%TD*%
D17*
%TO.C,SREG3*%
X127146300Y-33483100D03*
X127146300Y-34753100D03*
X127146300Y-36023100D03*
X127146300Y-37293100D03*
X127146300Y-38563100D03*
X127146300Y-39833100D03*
X127146300Y-41103100D03*
X122218700Y-41103100D03*
X122218700Y-39833100D03*
X122218700Y-38563100D03*
X122218700Y-37293100D03*
X122218700Y-36023100D03*
X122218700Y-34753100D03*
X122218700Y-33483100D03*
%TD*%
D18*
%TO.C,GROOVE1*%
X48864000Y-28194000D03*
D19*
X50864000Y-28194000D03*
X52864000Y-28194000D03*
X54864000Y-28194000D03*
%TD*%
D14*
%TO.C,MCU1*%
X47013600Y-36156000D03*
X49340000Y-36156000D03*
X51880000Y-36156000D03*
X54420000Y-36156000D03*
X57013600Y-36156000D03*
X59434538Y-36156000D03*
X62053600Y-36156000D03*
X62053600Y-51396000D03*
X59513600Y-51396000D03*
X57092662Y-51396000D03*
X54420000Y-51396000D03*
X51880000Y-51396000D03*
X49340000Y-51396000D03*
X47013600Y-51396000D03*
%TD*%
D20*
%TO.C,LATCH1*%
X49000000Y-61000000D03*
X51540000Y-61000000D03*
X54080000Y-61000000D03*
X56620000Y-61000000D03*
X59160000Y-61000000D03*
X61700000Y-61000000D03*
X64240000Y-61000000D03*
X66780000Y-61000000D03*
X69320000Y-61000000D03*
X71860000Y-61000000D03*
X71860000Y-69255000D03*
X69320000Y-69255000D03*
X66780000Y-69255000D03*
X64240000Y-69255000D03*
X61700000Y-69255000D03*
X59160000Y-69255000D03*
X56620000Y-69255000D03*
X54080000Y-69255000D03*
X51540000Y-69255000D03*
X49000000Y-69255000D03*
%TD*%
D21*
%TO.C,R4*%
X104292400Y-65176400D03*
X102743000Y-65176400D03*
%TD*%
D16*
%TO.C,R9*%
X68982500Y-28830600D03*
X68982500Y-30830600D03*
%TD*%
D22*
%TO.C,EXP1*%
X106412500Y-58725000D03*
X106412500Y-59375000D03*
X106412500Y-60025000D03*
X106412500Y-60675000D03*
X106412500Y-61325000D03*
X106412500Y-61975000D03*
X106412500Y-62625000D03*
X106412500Y-63275000D03*
X100687500Y-63275000D03*
X100687500Y-62625000D03*
X100687500Y-61975000D03*
X100687500Y-61325000D03*
X100687500Y-60675000D03*
X100687500Y-60025000D03*
X100687500Y-59375000D03*
X100687500Y-58725000D03*
%TD*%
D23*
%TO.C,R3*%
X101372000Y-73787000D03*
X102172000Y-73787000D03*
X102971999Y-73787000D03*
X103772000Y-73787000D03*
X104571998Y-73787000D03*
X105371999Y-73787000D03*
X106172000Y-73787000D03*
X106971998Y-73787000D03*
X106971998Y-75869800D03*
X106171998Y-75869800D03*
X105371999Y-75869800D03*
X104571998Y-75869800D03*
X103772000Y-75869800D03*
X102971999Y-75869800D03*
X102171998Y-75869800D03*
X101372000Y-75869800D03*
%TD*%
D16*
%TO.C,R7*%
X138982500Y-29293100D03*
X138982500Y-31293100D03*
%TD*%
%TO.C,R8*%
X68982500Y-47293100D03*
X68982500Y-49293100D03*
%TD*%
D17*
%TO.C,SREG2*%
X112846300Y-33483100D03*
X112846300Y-34753100D03*
X112846300Y-36023100D03*
X112846300Y-37293100D03*
X112846300Y-38563100D03*
X112846300Y-39833100D03*
X112846300Y-41103100D03*
X107918700Y-41103100D03*
X107918700Y-39833100D03*
X107918700Y-38563100D03*
X107918700Y-37293100D03*
X107918700Y-36023100D03*
X107918700Y-34753100D03*
X107918700Y-33483100D03*
%TD*%
M02*
