%TF.GenerationSoftware,KiCad,Pcbnew,8.0.4*%
%TF.CreationDate,2024-11-14T23:53:25+02:00*%
%TF.ProjectId,sienikontrolleri,7369656e-696b-46f6-9e74-726f6c6c6572,rev?*%
%TF.SameCoordinates,Original*%
%TF.FileFunction,Copper,L1,Top*%
%TF.FilePolarity,Positive*%
%FSLAX46Y46*%
G04 Gerber Fmt 4.6, Leading zero omitted, Abs format (unit mm)*
G04 Created by KiCad (PCBNEW 8.0.4) date 2024-11-14 23:53:25*
%MOMM*%
%LPD*%
G01*
G04 APERTURE LIST*
G04 Aperture macros list*
%AMRoundRect*
0 Rectangle with rounded corners*
0 $1 Rounding radius*
0 $2 $3 $4 $5 $6 $7 $8 $9 X,Y pos of 4 corners*
0 Add a 4 corners polygon primitive as box body*
4,1,4,$2,$3,$4,$5,$6,$7,$8,$9,$2,$3,0*
0 Add four circle primitives for the rounded corners*
1,1,$1+$1,$2,$3*
1,1,$1+$1,$4,$5*
1,1,$1+$1,$6,$7*
1,1,$1+$1,$8,$9*
0 Add four rect primitives between the rounded corners*
20,1,$1+$1,$2,$3,$4,$5,0*
20,1,$1+$1,$4,$5,$6,$7,0*
20,1,$1+$1,$6,$7,$8,$9,0*
20,1,$1+$1,$8,$9,$2,$3,0*%
G04 Aperture macros list end*
%TA.AperFunction,EtchedComponent*%
%ADD10C,0.000000*%
%TD*%
%TA.AperFunction,ComponentPad*%
%ADD11R,1.700000X1.700000*%
%TD*%
%TA.AperFunction,ComponentPad*%
%ADD12O,1.700000X1.700000*%
%TD*%
%TA.AperFunction,ComponentPad*%
%ADD13R,1.508000X1.508000*%
%TD*%
%TA.AperFunction,ComponentPad*%
%ADD14C,1.508000*%
%TD*%
%TA.AperFunction,SMDPad,CuDef*%
%ADD15R,2.590800X1.600200*%
%TD*%
%TA.AperFunction,SMDPad,CuDef*%
%ADD16R,1.041400X1.600200*%
%TD*%
%TA.AperFunction,ComponentPad*%
%ADD17C,1.524000*%
%TD*%
%TA.AperFunction,SMDPad,CuDef*%
%ADD18RoundRect,0.250000X-0.450000X0.350000X-0.450000X-0.350000X0.450000X-0.350000X0.450000X0.350000X0*%
%TD*%
%TA.AperFunction,SMDPad,CuDef*%
%ADD19R,0.863600X1.549400*%
%TD*%
%TA.AperFunction,SMDPad,CuDef*%
%ADD20RoundRect,0.250000X0.350000X0.450000X-0.350000X0.450000X-0.350000X-0.450000X0.350000X-0.450000X0*%
%TD*%
%TA.AperFunction,ComponentPad*%
%ADD21R,1.350000X1.350000*%
%TD*%
%TA.AperFunction,ComponentPad*%
%ADD22O,1.350000X1.350000*%
%TD*%
%TA.AperFunction,ComponentPad*%
%ADD23C,1.371600*%
%TD*%
%TA.AperFunction,ViaPad*%
%ADD24C,0.600000*%
%TD*%
%TA.AperFunction,Conductor*%
%ADD25C,0.200000*%
%TD*%
G04 APERTURE END LIST*
D10*
%TA.AperFunction,EtchedComponent*%
%TO.C,U1*%
G36*
X70557300Y-36842000D02*
G01*
X67407700Y-36842000D01*
X67407700Y-35292600D01*
X70557300Y-35292600D01*
X70557300Y-36842000D01*
G37*
%TD.AperFunction*%
%TD*%
D11*
%TO.P,J1,1,Pin_1*%
%TO.N,GND*%
X92659200Y-51155600D03*
D12*
%TO.P,J1,2,Pin_2*%
%TO.N,LATCHED LED CO2 G*%
X95199200Y-51155600D03*
%TO.P,J1,3,Pin_3*%
%TO.N,LATCHED LED CO2 R*%
X97739200Y-51155600D03*
%TO.P,J1,4,Pin_4*%
%TO.N,LATCHED LED HUM G*%
X100279200Y-51155600D03*
%TO.P,J1,5,Pin_5*%
%TO.N,LATCHED LED HUM R*%
X102819200Y-51155600D03*
%TO.P,J1,6,Pin_6*%
%TO.N,LATCHED LED TEMP G*%
X105359200Y-51155600D03*
%TO.P,J1,7,Pin_7*%
%TO.N,LATCHED LED TEMP R*%
X107899200Y-51155600D03*
%TO.P,J1,8,Pin_8*%
%TO.N,LATCHED LED CTRL1*%
X110439200Y-51155600D03*
%TO.P,J1,9,Pin_9*%
%TO.N,LATCHED LED CTRL2*%
X112979200Y-51155600D03*
%TD*%
D13*
%TO.P,S6,1*%
%TO.N,Net-(EXP1-IO6)*%
X65732500Y-46043100D03*
D14*
%TO.P,S6,2*%
%TO.N,Net-(R8-Pad1)*%
X72232500Y-46043100D03*
%TO.P,S6,3*%
%TO.N,unconnected-(S6-Pad3)*%
X65732500Y-50543100D03*
%TO.P,S6,4*%
%TO.N,+5V*%
X72232500Y-50543100D03*
%TD*%
D13*
%TO.P,S3,1*%
%TO.N,Net-(EXP1-IO3)*%
X107150000Y-66750000D03*
D14*
%TO.P,S3,2*%
%TO.N,Net-(R3-Pad3)*%
X113650000Y-66750000D03*
%TO.P,S3,3*%
%TO.N,unconnected-(S3-Pad3)*%
X107150000Y-71250000D03*
%TO.P,S3,4*%
%TO.N,+5V*%
X113650000Y-71250000D03*
%TD*%
D13*
%TO.P,S4,1*%
%TO.N,Net-(EXP1-IO2)*%
X121450000Y-66750000D03*
D14*
%TO.P,S4,2*%
%TO.N,Net-(R3-Pad4)*%
X127950000Y-66750000D03*
%TO.P,S4,3*%
%TO.N,unconnected-(S4-Pad3)*%
X121450000Y-71250000D03*
%TO.P,S4,4*%
%TO.N,+5V*%
X127950000Y-71250000D03*
%TD*%
D15*
%TO.P,LED4,1,1*%
%TO.N,GND*%
X124700000Y-62400000D03*
D16*
%TO.P,LED4,2,2*%
%TO.N,Net-(LED4-Pad2)*%
X123926800Y-59600000D03*
%TO.P,LED4,3,3*%
%TO.N,Net-(LED4-Pad3)*%
X125476800Y-59600000D03*
%TD*%
D17*
%TO.P,DISP1,1,E*%
%TO.N,SEG_E*%
X90242500Y-46964100D03*
%TO.P,DISP1,2,D*%
%TO.N,SEG_D*%
X92782500Y-46964100D03*
%TO.P,DISP1,3,DP*%
%TO.N,SEG_DP*%
X95322500Y-46964100D03*
%TO.P,DISP1,4,C*%
%TO.N,SEG_C*%
X97862500Y-46964100D03*
%TO.P,DISP1,5,G*%
%TO.N,SEG_G*%
X100402500Y-46964100D03*
%TO.P,DISP1,6,COM*%
%TO.N,DIG4*%
X102942500Y-46964100D03*
%TO.P,DISP1,7,B*%
%TO.N,SEG_B*%
X105482500Y-46964100D03*
%TO.P,DISP1,8,COM*%
%TO.N,DIG3*%
X108022500Y-46964100D03*
%TO.P,DISP1,9,COM*%
%TO.N,DIG2*%
X110562500Y-46964100D03*
%TO.P,DISP1,10,F*%
%TO.N,SEG_F*%
X113102500Y-46964100D03*
%TO.P,DISP1,11,A*%
%TO.N,SEG_A*%
X115642500Y-46964100D03*
%TO.P,DISP1,12,COM*%
%TO.N,DIG1*%
X118182500Y-46964100D03*
%TD*%
D13*
%TO.P,S1,1*%
%TO.N,Net-(EXP1-IO5)*%
X79750000Y-66750000D03*
D14*
%TO.P,S1,2*%
%TO.N,Net-(R3-Pad1)*%
X86250000Y-66750000D03*
%TO.P,S1,3*%
%TO.N,unconnected-(S1-Pad3)*%
X79750000Y-71250000D03*
%TO.P,S1,4*%
%TO.N,+5V*%
X86250000Y-71250000D03*
%TD*%
D13*
%TO.P,S7,1*%
%TO.N,Net-(EXP1-IO0)*%
X135732500Y-28043100D03*
D14*
%TO.P,S7,2*%
%TO.N,Net-(R7-Pad1)*%
X142232500Y-28043100D03*
%TO.P,S7,3*%
%TO.N,unconnected-(S7-Pad3)*%
X135732500Y-32543100D03*
%TO.P,S7,4*%
%TO.N,+5V*%
X142232500Y-32543100D03*
%TD*%
D18*
%TO.P,R11,1*%
%TO.N,LATCHED LED HUM R*%
X97917000Y-55023000D03*
%TO.P,R11,2*%
%TO.N,Net-(LED2-Pad3)*%
X97917000Y-57023000D03*
%TD*%
D13*
%TO.P,S5,1*%
%TO.N,Net-(EXP1-IO7)*%
X65732500Y-28043100D03*
D14*
%TO.P,S5,2*%
%TO.N,Net-(R9-Pad1)*%
X72232500Y-28043100D03*
%TO.P,S5,3*%
%TO.N,unconnected-(S5-Pad3)*%
X65732500Y-32543100D03*
%TO.P,S5,4*%
%TO.N,+5V*%
X72232500Y-32543100D03*
%TD*%
D11*
%TO.P,J2,1,Pin_1*%
%TO.N,GND*%
X74531500Y-38092100D03*
D12*
%TO.P,J2,2,Pin_2*%
%TO.N,+5V*%
X74531500Y-40632100D03*
%TD*%
D13*
%TO.P,S8,1*%
%TO.N,Net-(EXP1-IO1)*%
X135732500Y-46043100D03*
D14*
%TO.P,S8,2*%
%TO.N,Net-(R6-Pad1)*%
X142232500Y-46043100D03*
%TO.P,S8,3*%
%TO.N,unconnected-(S8-Pad3)*%
X135732500Y-50543100D03*
%TO.P,S8,4*%
%TO.N,+5V*%
X142232500Y-50543100D03*
%TD*%
D18*
%TO.P,R10,1*%
%TO.N,LATCHED LED HUM G*%
X95504000Y-55023000D03*
%TO.P,R10,2*%
%TO.N,Net-(LED2-Pad2)*%
X95504000Y-57023000D03*
%TD*%
D15*
%TO.P,LED1,1,1*%
%TO.N,GND*%
X83000000Y-62400000D03*
D16*
%TO.P,LED1,2,2*%
%TO.N,Net-(LED1-Pad2)*%
X82226800Y-59600000D03*
%TO.P,LED1,3,3*%
%TO.N,Net-(LED1-Pad3)*%
X83776800Y-59600000D03*
%TD*%
D18*
%TO.P,R14,1*%
%TO.N,LATCHED LED CTRL1*%
X123571000Y-55007000D03*
%TO.P,R14,2*%
%TO.N,Net-(LED4-Pad2)*%
X123571000Y-57007000D03*
%TD*%
%TO.P,R15,1*%
%TO.N,LATCHED LED CTRL2*%
X126111000Y-55023000D03*
%TO.P,R15,2*%
%TO.N,Net-(LED4-Pad3)*%
X126111000Y-57023000D03*
%TD*%
%TO.P,R1,1*%
%TO.N,LATCHED LED CO2 G*%
X81788000Y-55118000D03*
%TO.P,R1,2*%
%TO.N,Net-(LED1-Pad2)*%
X81788000Y-57118000D03*
%TD*%
D19*
%TO.P,U1,1,ADJ/GND*%
%TO.N,GND*%
X66682500Y-42518900D03*
%TO.P,U1,2,OUTPUT*%
%TO.N,+3V3*%
X68982500Y-42518900D03*
%TO.P,U1,3,INPUT*%
%TO.N,+5V*%
X71282500Y-42518900D03*
%TD*%
D18*
%TO.P,R12,1*%
%TO.N,LATCHED LED TEMP G*%
X109220000Y-55150000D03*
%TO.P,R12,2*%
%TO.N,Net-(LED3-Pad2)*%
X109220000Y-57150000D03*
%TD*%
D20*
%TO.P,R5,1*%
%TO.N,+5V*%
X50038000Y-54991000D03*
%TO.P,R5,2*%
%TO.N,Net-(MCU1-+5V)*%
X48038000Y-54991000D03*
%TD*%
D18*
%TO.P,R13,1*%
%TO.N,LATCHED LED TEMP R*%
X111633000Y-55150000D03*
%TO.P,R13,2*%
%TO.N,Net-(LED3-Pad3)*%
X111633000Y-57150000D03*
%TD*%
%TO.P,R2,1*%
%TO.N,LATCHED LED CO2 R*%
X84201000Y-55134000D03*
%TO.P,R2,2*%
%TO.N,Net-(LED1-Pad3)*%
X84201000Y-57134000D03*
%TD*%
D15*
%TO.P,LED2,1,1*%
%TO.N,GND*%
X96700000Y-62400000D03*
D16*
%TO.P,LED2,2,2*%
%TO.N,Net-(LED2-Pad2)*%
X95926800Y-59600000D03*
%TO.P,LED2,3,3*%
%TO.N,Net-(LED2-Pad3)*%
X97476800Y-59600000D03*
%TD*%
D13*
%TO.P,S2,1*%
%TO.N,Net-(EXP1-IO4)*%
X93450000Y-66750000D03*
D14*
%TO.P,S2,2*%
%TO.N,Net-(R3-Pad2)*%
X99950000Y-66750000D03*
%TO.P,S2,3*%
%TO.N,unconnected-(S2-Pad3)*%
X93450000Y-71250000D03*
%TO.P,S2,4*%
%TO.N,+5V*%
X99950000Y-71250000D03*
%TD*%
D15*
%TO.P,LED3,1,1*%
%TO.N,GND*%
X110400000Y-62400000D03*
D16*
%TO.P,LED3,2,2*%
%TO.N,Net-(LED3-Pad2)*%
X109626800Y-59600000D03*
%TO.P,LED3,3,3*%
%TO.N,Net-(LED3-Pad3)*%
X111176800Y-59600000D03*
%TD*%
D21*
%TO.P,GROOVE1,1,Pin_1*%
%TO.N,GND*%
X48864000Y-28194000D03*
D22*
%TO.P,GROOVE1,2,Pin_2*%
%TO.N,+5V*%
X50864000Y-28194000D03*
%TO.P,GROOVE1,3,Pin_3*%
%TO.N,MCU SDA*%
X52864000Y-28194000D03*
%TO.P,GROOVE1,4,Pin_4*%
%TO.N,MCU SCL*%
X54864000Y-28194000D03*
%TD*%
D17*
%TO.P,MCU1,1,NC*%
%TO.N,unconnected-(MCU1-NC-Pad1)*%
X47013600Y-36156000D03*
%TO.P,MCU1,2,NC*%
%TO.N,unconnected-(MCU1-NC-Pad2)*%
X49340000Y-36156000D03*
%TO.P,MCU1,3,NC*%
%TO.N,unconnected-(MCU1-NC-Pad3)*%
X51880000Y-36156000D03*
%TO.P,MCU1,4,NC*%
%TO.N,unconnected-(MCU1-NC-Pad4)*%
X54420000Y-36156000D03*
%TO.P,MCU1,5,SDA*%
%TO.N,MCU SDA*%
X57013600Y-36156000D03*
%TO.P,MCU1,6,SCL*%
%TO.N,MCU SCL*%
X59434538Y-36156000D03*
%TO.P,MCU1,7,LATCH*%
%TO.N,MCU LATCH*%
X62053600Y-36156000D03*
%TO.P,MCU1,8,NC*%
%TO.N,unconnected-(MCU1-NC-Pad8)*%
X62053600Y-51396000D03*
%TO.P,MCU1,9,SCLK*%
%TO.N,MCU SREG CLK*%
X59513600Y-51396000D03*
%TO.P,MCU1,10,NINT*%
%TO.N,EXP NINT*%
X57092662Y-51396000D03*
%TO.P,MCU1,11,SDAT*%
%TO.N,MCU SREG DAT*%
X54420000Y-51396000D03*
%TO.P,MCU1,12,VCC*%
%TO.N,+3V3*%
X51880000Y-51396000D03*
%TO.P,MCU1,13,GND*%
%TO.N,GND*%
X49340000Y-51396000D03*
%TO.P,MCU1,14,+5V*%
%TO.N,Net-(MCU1-+5V)*%
X47013600Y-51396000D03*
%TD*%
D23*
%TO.P,LATCH1,1,\u002AOE*%
%TO.N,GND*%
X49000000Y-61000000D03*
%TO.P,LATCH1,2,O0*%
%TO.N,LATCHED LED CO2 G*%
X51540000Y-61000000D03*
%TO.P,LATCH1,3,D0*%
%TO.N,LED CO2 G*%
X54080000Y-61000000D03*
%TO.P,LATCH1,4,D1*%
%TO.N,LED CO2 R*%
X56620000Y-61000000D03*
%TO.P,LATCH1,5,O1*%
%TO.N,LATCHED LED CO2 R*%
X59160000Y-61000000D03*
%TO.P,LATCH1,6,O2*%
%TO.N,LATCHED LED HUM G*%
X61700000Y-61000000D03*
%TO.P,LATCH1,7,D2*%
%TO.N,LED HUM G*%
X64240000Y-61000000D03*
%TO.P,LATCH1,8,D3*%
%TO.N,LED HUM R*%
X66780000Y-61000000D03*
%TO.P,LATCH1,9,O3*%
%TO.N,LATCHED LED HUM R*%
X69320000Y-61000000D03*
%TO.P,LATCH1,10,GND*%
%TO.N,GND*%
X71860000Y-61000000D03*
%TO.P,LATCH1,11,LE*%
%TO.N,MCU LATCH*%
X71860000Y-69255000D03*
%TO.P,LATCH1,12,O4*%
%TO.N,LATCHED LED TEMP G*%
X69320000Y-69255000D03*
%TO.P,LATCH1,13,D4*%
%TO.N,LED TEMP G*%
X66780000Y-69255000D03*
%TO.P,LATCH1,14,D5*%
%TO.N,LED TEMP R*%
X64240000Y-69255000D03*
%TO.P,LATCH1,15,O5*%
%TO.N,LATCHED LED TEMP R*%
X61700000Y-69255000D03*
%TO.P,LATCH1,16,O6*%
%TO.N,LATCHED LED CTRL1*%
X59160000Y-69255000D03*
%TO.P,LATCH1,17,D6*%
%TO.N,LED CTRL1*%
X56620000Y-69255000D03*
%TO.P,LATCH1,18,D7*%
%TO.N,LED CTRL2*%
X54080000Y-69255000D03*
%TO.P,LATCH1,19,O7*%
%TO.N,LATCHED LED CTRL2*%
X51540000Y-69255000D03*
%TO.P,LATCH1,20,VCC*%
%TO.N,+5V*%
X49000000Y-69255000D03*
%TD*%
D24*
%TO.N,SEG_E*%
X101244400Y-42572100D03*
%TO.N,SEG_D*%
X114444500Y-39997100D03*
%TO.N,SEG_F*%
X110091500Y-39235100D03*
X109456500Y-37330100D03*
%TO.N,SEG_C*%
X115042500Y-38981100D03*
%TO.N,DIG2*%
X120965765Y-45029365D03*
X112123500Y-45585100D03*
%TO.N,SEG_A*%
X115642500Y-38219300D03*
X115671600Y-43688000D03*
%TO.N,DIG3*%
X122406030Y-44437630D03*
X111234500Y-45331100D03*
%TO.N,SEG_B*%
X111234500Y-37330100D03*
X109964500Y-42283100D03*
%TO.N,SEG_DP*%
X125585500Y-34663100D03*
X109329500Y-34190100D03*
%TO.N,MCU SDA*%
X52864000Y-26720800D03*
X93167200Y-59740800D03*
%TO.N,Net-(EXP1-IO0)*%
X134264400Y-34442400D03*
%TO.N,GND*%
X136486900Y-34429700D03*
X128887500Y-41140100D03*
X120192800Y-40503100D03*
X127381000Y-63754000D03*
X49936400Y-29921200D03*
X107696000Y-60045600D03*
X107950000Y-63500000D03*
X138285500Y-32631100D03*
%TO.N,+5V*%
X120599200Y-33528000D03*
X70256400Y-51866800D03*
X76708000Y-40436800D03*
X114452400Y-33528000D03*
X51663600Y-30530800D03*
X83261200Y-73253600D03*
%TO.N,Net-(EXP1-IO6)*%
X88696800Y-60858400D03*
%TO.N,EXP NINT*%
X85861600Y-47193200D03*
X93218000Y-61671200D03*
X57200800Y-53187600D03*
X79400400Y-53492400D03*
%TO.N,Net-(EXP1-IO7)*%
X89763600Y-60807600D03*
%TO.N,MCU SCL*%
X54864000Y-26771600D03*
X93116400Y-60604400D03*
%TO.N,MCU SREG CLK*%
X106172000Y-41148000D03*
X93301735Y-40876135D03*
X112979200Y-43027600D03*
X79654400Y-54518000D03*
X106680000Y-43772100D03*
X60045600Y-54508400D03*
%TO.N,LED TEMP R*%
X59385200Y-75946000D03*
%TO.N,LED TEMP G*%
X60655200Y-75946000D03*
%TO.N,LED CTRL2*%
X111201200Y-34848800D03*
X102768400Y-34848800D03*
X56845200Y-75946000D03*
X54000400Y-59537600D03*
X79103135Y-55785935D03*
%TO.N,LED CTRL1*%
X58064400Y-75946000D03*
%TO.N,Net-(R3-Pad3)*%
X106172000Y-69977000D03*
%TO.N,Net-(R3-Pad2)*%
X101727000Y-70612000D03*
%TO.N,LATCHED LED CO2 G*%
X82194400Y-54000400D03*
X93776800Y-53390800D03*
%TO.N,LATCHED LED HUM R*%
X97790000Y-53949600D03*
X71323200Y-58705600D03*
%TO.N,LATCHED LED CO2 R*%
X94030800Y-54203600D03*
X83718400Y-54203600D03*
%TO.N,LATCHED LED HUM G*%
X94081600Y-55016400D03*
X70154800Y-58105600D03*
%TO.N,LATCHED LED TEMP R*%
X71374000Y-65532000D03*
X79400400Y-60045600D03*
X111150400Y-54000400D03*
%TO.N,LATCHED LED TEMP G*%
X73660000Y-59305600D03*
X107950000Y-55168800D03*
%TO.N,LATCHED LED CTRL2*%
X71323200Y-64465200D03*
X58978800Y-65176400D03*
X125730000Y-53797200D03*
X75641200Y-61722000D03*
X113995200Y-57292800D03*
%TO.N,LATCHED LED CTRL1*%
X113269672Y-56600800D03*
X71170800Y-63347600D03*
X74879200Y-60909200D03*
X63347600Y-64363600D03*
X122275600Y-55168800D03*
%TD*%
D25*
%TO.N,SEG_E*%
X94542500Y-42664100D02*
X90242500Y-46964100D01*
X101152400Y-42664100D02*
X94542500Y-42664100D01*
X101244400Y-42572100D02*
X101152400Y-42664100D01*
%TO.N,SEG_D*%
X114444500Y-40038300D02*
X114444500Y-39997100D01*
X92782500Y-46964100D02*
X96574500Y-43172100D01*
X96574500Y-43172100D02*
X111310700Y-43172100D01*
X111310700Y-43172100D02*
X114444500Y-40038300D01*
%TO.N,SEG_F*%
X110091500Y-39235100D02*
X110091500Y-37965100D01*
X110091500Y-37965100D02*
X109456500Y-37330100D01*
%TO.N,SEG_C*%
X111687706Y-44029365D02*
X114111035Y-44029365D01*
X97862500Y-46964100D02*
X99368500Y-45458100D01*
X114111035Y-44029365D02*
X115044500Y-43095900D01*
X115044500Y-38983100D02*
X115042500Y-38981100D01*
X99368500Y-45458100D02*
X110258971Y-45458100D01*
X115044500Y-43095900D02*
X115044500Y-38983100D01*
X110258971Y-45458100D02*
X111687706Y-44029365D01*
%TO.N,DIG2*%
X120965765Y-45029365D02*
X120410030Y-45585100D01*
X120410030Y-45585100D02*
X112123500Y-45585100D01*
%TO.N,SEG_A*%
X115642500Y-43658900D02*
X115671600Y-43688000D01*
X115642500Y-38219300D02*
X115642500Y-43658900D01*
%TO.N,DIG3*%
X122397765Y-44429365D02*
X122406030Y-44437630D01*
X111234500Y-45331100D02*
X112136235Y-44429365D01*
X112136235Y-44429365D02*
X122397765Y-44429365D01*
%TO.N,SEG_B*%
X109964500Y-42283100D02*
X109964500Y-40210629D01*
X111234500Y-38940629D02*
X111234500Y-37330100D01*
X109964500Y-40210629D02*
X111234500Y-38940629D01*
%TO.N,SEG_DP*%
X125112500Y-34190100D02*
X109329500Y-34190100D01*
X125585500Y-34663100D02*
X125112500Y-34190100D01*
%TO.N,MCU SDA*%
X92259200Y-58524886D02*
X92259200Y-54616400D01*
X73964800Y-25654000D02*
X53930800Y-25654000D01*
X52864000Y-28194000D02*
X52864000Y-32006400D01*
X93167200Y-59432886D02*
X92259200Y-58524886D01*
X52864000Y-32006400D02*
X57013600Y-36156000D01*
X57277895Y-36156000D02*
X57013600Y-36156000D01*
X53930800Y-25654000D02*
X52864000Y-26720800D01*
X86969600Y-49326800D02*
X86969600Y-38658800D01*
X93167200Y-59740800D02*
X93167200Y-59432886D01*
X86969600Y-38658800D02*
X73964800Y-25654000D01*
X92259200Y-54616400D02*
X86969600Y-49326800D01*
%TO.N,Net-(EXP1-IO0)*%
X134264400Y-29511200D02*
X135732500Y-28043100D01*
X134264400Y-34442400D02*
X134264400Y-29511200D01*
%TO.N,GND*%
X129776500Y-41140100D02*
X128887500Y-41140100D01*
X92659200Y-58359200D02*
X96700000Y-62400000D01*
X110400000Y-62400000D02*
X111750000Y-63750000D01*
X96700000Y-62400000D02*
X106850000Y-62400000D01*
X106850000Y-62400000D02*
X107950000Y-63500000D01*
X83312000Y-64897000D02*
X94203000Y-64897000D01*
X83000000Y-62400000D02*
X83000000Y-64585000D01*
X136486900Y-34429700D02*
X129776500Y-41140100D01*
X138285500Y-32631100D02*
X136486900Y-34429700D01*
X111750000Y-63750000D02*
X123350000Y-63750000D01*
X126027000Y-62400000D02*
X124700000Y-62400000D01*
X110400000Y-62400000D02*
X109300000Y-63500000D01*
X109300000Y-63500000D02*
X107950000Y-63500000D01*
X120192800Y-40503100D02*
X128250500Y-40503100D01*
X110050400Y-62400000D02*
X110400000Y-62400000D01*
X49340000Y-51396000D02*
X58217100Y-42518900D01*
X107696000Y-60045600D02*
X110050400Y-62400000D01*
X92659200Y-51155600D02*
X92659200Y-58359200D01*
X94203000Y-64897000D02*
X96700000Y-62400000D01*
X48864000Y-28194000D02*
X48864000Y-28848800D01*
X127381000Y-63754000D02*
X126027000Y-62400000D01*
X123350000Y-63750000D02*
X124700000Y-62400000D01*
X128250500Y-40503100D02*
X128887500Y-41140100D01*
X71109300Y-38092100D02*
X66682500Y-42518900D01*
X83000000Y-64585000D02*
X83312000Y-64897000D01*
X48864000Y-28848800D02*
X49936400Y-29921200D01*
X58217100Y-42518900D02*
X66682500Y-42518900D01*
X74531500Y-38092100D02*
X71109300Y-38092100D01*
%TO.N,+5V*%
X83312000Y-73202800D02*
X83312000Y-73101200D01*
X76454000Y-40436800D02*
X76258700Y-40632100D01*
X142232500Y-50543100D02*
X143286500Y-49489100D01*
X120599200Y-33528000D02*
X114452400Y-33528000D01*
X50864000Y-28194000D02*
X50864000Y-29731200D01*
X112596000Y-72304000D02*
X113650000Y-71250000D01*
X76258700Y-40632100D02*
X74531500Y-40632100D01*
X143286500Y-33597100D02*
X142232500Y-32543100D01*
X101004000Y-72304000D02*
X112596000Y-72304000D01*
X99950000Y-71250000D02*
X98896000Y-72304000D01*
X48014200Y-68269200D02*
X48014200Y-57268800D01*
X85163200Y-71250000D02*
X86250000Y-71250000D01*
X52825000Y-52458000D02*
X48014200Y-57268800D01*
X71178500Y-49489100D02*
X71178500Y-42622900D01*
X72232500Y-50543100D02*
X71178500Y-49489100D01*
X98896000Y-72304000D02*
X87304000Y-72304000D01*
X71282500Y-42518900D02*
X72644700Y-42518900D01*
X72644700Y-42518900D02*
X74531500Y-40632100D01*
X113650000Y-71250000D02*
X114704000Y-72304000D01*
X143286500Y-49489100D02*
X143286500Y-33597100D01*
X50864000Y-29731200D02*
X51663600Y-30530800D01*
X48014200Y-57268800D02*
X50038000Y-55245000D01*
X142232500Y-56967500D02*
X127950000Y-71250000D01*
X70256400Y-51866800D02*
X69665200Y-52458000D01*
X99950000Y-71250000D02*
X101004000Y-72304000D01*
X87304000Y-72304000D02*
X86250000Y-71250000D01*
X114704000Y-72304000D02*
X126896000Y-72304000D01*
X49000000Y-69255000D02*
X48014200Y-68269200D01*
X83312000Y-73101200D02*
X85163200Y-71250000D01*
X126896000Y-72304000D02*
X127950000Y-71250000D01*
X83261200Y-73253600D02*
X83312000Y-73202800D01*
X71178500Y-42622900D02*
X71282500Y-42518900D01*
X76708000Y-40436800D02*
X76454000Y-40436800D01*
X50038000Y-55245000D02*
X50038000Y-54991000D01*
X69665200Y-52458000D02*
X52825000Y-52458000D01*
X142232500Y-50543100D02*
X142232500Y-56967500D01*
%TO.N,Net-(EXP1-IO6)*%
X72267400Y-52578000D02*
X65732500Y-46043100D01*
X83229744Y-52578000D02*
X72267400Y-52578000D01*
X88696800Y-60858400D02*
X88696800Y-58045056D01*
X88696800Y-58045056D02*
X83229744Y-52578000D01*
%TO.N,EXP NINT*%
X86156800Y-50698400D02*
X85861600Y-50403200D01*
X79400400Y-53492400D02*
X57505600Y-53492400D01*
X85861600Y-50403200D02*
X85861600Y-47193200D01*
X93218000Y-61671200D02*
X90163600Y-58616800D01*
X90163600Y-58616800D02*
X90163600Y-54705200D01*
X57505600Y-53492400D02*
X57200800Y-53187600D01*
X90163600Y-54705200D02*
X86156800Y-50698400D01*
%TO.N,Net-(EXP1-IO7)*%
X83566000Y-52222400D02*
X83566000Y-37236400D01*
X73152000Y-26822400D02*
X66953200Y-26822400D01*
X83566000Y-37236400D02*
X73152000Y-26822400D01*
X66953200Y-26822400D02*
X65732500Y-28043100D01*
X89763600Y-60807600D02*
X89763600Y-58420000D01*
X89763600Y-58420000D02*
X83566000Y-52222400D01*
%TO.N,MCU SCL*%
X91859200Y-59281329D02*
X92918671Y-60340800D01*
X54864000Y-26771600D02*
X55372000Y-26263600D01*
X86461600Y-49885600D02*
X91859200Y-55283200D01*
X86461600Y-39014400D02*
X86461600Y-49885600D01*
X91859200Y-55283200D02*
X91859200Y-59281329D01*
X54864000Y-31585462D02*
X59434538Y-36156000D01*
X93116400Y-60340800D02*
X93116400Y-60604400D01*
X73710800Y-26263600D02*
X86461600Y-39014400D01*
X54864000Y-28194000D02*
X54864000Y-31585462D01*
X55372000Y-26263600D02*
X73710800Y-26263600D01*
X92918671Y-60340800D02*
X93116400Y-60340800D01*
X59434538Y-36156000D02*
X59422400Y-36156000D01*
%TO.N,MCU SREG CLK*%
X112979200Y-43027600D02*
X112434700Y-43572100D01*
X106880000Y-43572100D02*
X106680000Y-43772100D01*
X93301735Y-40876135D02*
X105900135Y-40876135D01*
X60055200Y-54518000D02*
X60045600Y-54508400D01*
X79654400Y-54518000D02*
X60055200Y-54518000D01*
X105900135Y-40876135D02*
X106172000Y-41148000D01*
X112434700Y-43572100D02*
X106880000Y-43572100D01*
%TO.N,MCU LATCH*%
X68681600Y-79298800D02*
X71860000Y-76120400D01*
X62053600Y-36156000D02*
X57976000Y-40233600D01*
X45161200Y-69291200D02*
X55168800Y-79298800D01*
X57976000Y-40233600D02*
X56642000Y-40233600D01*
X56642000Y-40233600D02*
X45161200Y-51714400D01*
X45161200Y-51714400D02*
X45161200Y-69291200D01*
X55168800Y-79298800D02*
X68681600Y-79298800D01*
X71860000Y-76120400D02*
X71860000Y-69255000D01*
%TO.N,+3V3*%
X51880000Y-51396000D02*
X59682400Y-43593600D01*
X59682400Y-43593600D02*
X67907800Y-43593600D01*
X67907800Y-43593600D02*
X68982500Y-42518900D01*
%TO.N,LED TEMP R*%
X59385200Y-75946000D02*
X64240000Y-71091200D01*
X64240000Y-71091200D02*
X64240000Y-69255000D01*
%TO.N,LED TEMP G*%
X60655200Y-75946000D02*
X60655200Y-75379800D01*
X60655200Y-75379800D02*
X66780000Y-69255000D01*
%TO.N,LED CTRL2*%
X57556400Y-55981600D02*
X54000400Y-59537600D01*
X79103135Y-55785935D02*
X78907470Y-55981600D01*
X54080000Y-73180800D02*
X54080000Y-69255000D01*
X78907470Y-55981600D02*
X57556400Y-55981600D01*
X56845200Y-75946000D02*
X54080000Y-73180800D01*
X102768400Y-34848800D02*
X111201200Y-34848800D01*
%TO.N,LED CTRL1*%
X56620000Y-74501600D02*
X56620000Y-69255000D01*
X58064400Y-75946000D02*
X56620000Y-74501600D01*
%TO.N,Net-(R3-Pad3)*%
X106172000Y-69977000D02*
X109399000Y-66750000D01*
X109399000Y-66750000D02*
X113650000Y-66750000D01*
%TO.N,Net-(R3-Pad2)*%
X101727000Y-68527000D02*
X99950000Y-66750000D01*
X101727000Y-70612000D02*
X101727000Y-68527000D01*
%TO.N,LATCHED LED CO2 G*%
X93776800Y-52578000D02*
X93776800Y-53390800D01*
X57422000Y-55118000D02*
X51540000Y-61000000D01*
X81788000Y-55118000D02*
X57422000Y-55118000D01*
X82194400Y-54711600D02*
X81788000Y-55118000D01*
X95199200Y-51155600D02*
X93776800Y-52578000D01*
X82194400Y-54000400D02*
X82194400Y-54711600D01*
%TO.N,LATCHED LED HUM R*%
X69320000Y-59661200D02*
X69320000Y-61000000D01*
X70275600Y-58705600D02*
X69320000Y-59661200D01*
X97790000Y-53949600D02*
X97790000Y-54896000D01*
X97790000Y-54896000D02*
X97917000Y-55023000D01*
X102819200Y-51155600D02*
X100025200Y-53949600D01*
X100025200Y-53949600D02*
X97790000Y-53949600D01*
X71323200Y-58705600D02*
X70275600Y-58705600D01*
%TO.N,LATCHED LED CO2 R*%
X59160000Y-59356400D02*
X59160000Y-61000000D01*
X97093871Y-51155600D02*
X94045871Y-54203600D01*
X79719600Y-56018000D02*
X78232000Y-57505600D01*
X83317000Y-56018000D02*
X79719600Y-56018000D01*
X97739200Y-51155600D02*
X97093871Y-51155600D01*
X84201000Y-55134000D02*
X83317000Y-56018000D01*
X94045871Y-54203600D02*
X94030800Y-54203600D01*
X83718400Y-54203600D02*
X83718400Y-54651400D01*
X83718400Y-54651400D02*
X84201000Y-55134000D01*
X61010800Y-57505600D02*
X59160000Y-59356400D01*
X78232000Y-57505600D02*
X61010800Y-57505600D01*
%TO.N,LATCHED LED HUM G*%
X99735471Y-51155600D02*
X95868071Y-55023000D01*
X62900000Y-58105600D02*
X61700000Y-59305600D01*
X61700000Y-59305600D02*
X61700000Y-61000000D01*
X94081600Y-55016400D02*
X95497400Y-55016400D01*
X100279200Y-51155600D02*
X99735471Y-51155600D01*
X95497400Y-55016400D02*
X95504000Y-55023000D01*
X95868071Y-55023000D02*
X95504000Y-55023000D01*
X70154800Y-58105600D02*
X62900000Y-58105600D01*
%TO.N,LATCHED LED TEMP R*%
X111150400Y-54667400D02*
X111633000Y-55150000D01*
X107899200Y-51155600D02*
X110744000Y-54000400D01*
X78166129Y-60045600D02*
X72679729Y-65532000D01*
X111080800Y-55150000D02*
X111633000Y-55150000D01*
X111150400Y-54000400D02*
X111150400Y-54667400D01*
X72679729Y-65532000D02*
X71374000Y-65532000D01*
X79400400Y-60045600D02*
X78166129Y-60045600D01*
X110744000Y-54000400D02*
X111150400Y-54000400D01*
%TO.N,LATCHED LED TEMP G*%
X107950000Y-55168800D02*
X109201200Y-55168800D01*
X107950000Y-53746400D02*
X107950000Y-55168800D01*
X109201200Y-55168800D02*
X109220000Y-55150000D01*
X72160268Y-59305600D02*
X70305800Y-61160068D01*
X105359200Y-51155600D02*
X107950000Y-53746400D01*
X70305800Y-68269200D02*
X69320000Y-69255000D01*
X73660000Y-59305600D02*
X72160268Y-59305600D01*
X70305800Y-61160068D02*
X70305800Y-68269200D01*
X108540800Y-55150000D02*
X109220000Y-55150000D01*
%TO.N,LATCHED LED CTRL2*%
X72898000Y-64465200D02*
X71323200Y-64465200D01*
X58877200Y-65278000D02*
X55517000Y-65278000D01*
X112979200Y-51155600D02*
X113995200Y-52171600D01*
X125730000Y-54642000D02*
X126111000Y-55023000D01*
X113995200Y-52171600D02*
X113995200Y-57292800D01*
X75641200Y-61722000D02*
X72898000Y-64465200D01*
X55517000Y-65278000D02*
X51540000Y-69255000D01*
X58978800Y-65176400D02*
X58877200Y-65278000D01*
X125730000Y-53797200D02*
X125730000Y-54642000D01*
%TO.N,LATCHED LED CTRL1*%
X123409200Y-55168800D02*
X123571000Y-55007000D01*
X74879200Y-60909200D02*
X72440800Y-63347600D01*
X59160000Y-65960400D02*
X59160000Y-69255000D01*
X63347600Y-64363600D02*
X60756800Y-64363600D01*
X72440800Y-63347600D02*
X71170800Y-63347600D01*
X110439200Y-51155600D02*
X113269672Y-53986072D01*
X113269672Y-53986072D02*
X113269672Y-56600800D01*
X60756800Y-64363600D02*
X59160000Y-65960400D01*
X122275600Y-55168800D02*
X123409200Y-55168800D01*
%TO.N,Net-(MCU1-+5V)*%
X48038000Y-52420400D02*
X47013600Y-51396000D01*
X48038000Y-54991000D02*
X48038000Y-52420400D01*
%TO.N,Net-(LED1-Pad3)*%
X84201000Y-57134000D02*
X84201000Y-59175800D01*
X84201000Y-59175800D02*
X83776800Y-59600000D01*
%TO.N,Net-(LED1-Pad2)*%
X81788000Y-59161200D02*
X82226800Y-59600000D01*
X81788000Y-57118000D02*
X81788000Y-59161200D01*
%TO.N,Net-(LED2-Pad3)*%
X97917000Y-59159800D02*
X97476800Y-59600000D01*
X97917000Y-57023000D02*
X97917000Y-59159800D01*
%TO.N,Net-(LED2-Pad2)*%
X95504000Y-59177200D02*
X95926800Y-59600000D01*
X95504000Y-57023000D02*
X95504000Y-59177200D01*
%TO.N,Net-(LED3-Pad3)*%
X111633000Y-57150000D02*
X111633000Y-59143800D01*
X111633000Y-59143800D02*
X111176800Y-59600000D01*
%TO.N,Net-(LED3-Pad2)*%
X109220000Y-57150000D02*
X109220000Y-59193200D01*
X109220000Y-59193200D02*
X109626800Y-59600000D01*
%TO.N,Net-(LED4-Pad2)*%
X123571000Y-57007000D02*
X123571000Y-59244200D01*
X123571000Y-59244200D02*
X123926800Y-59600000D01*
%TO.N,Net-(LED4-Pad3)*%
X126111000Y-57023000D02*
X126111000Y-58965800D01*
X126111000Y-58965800D02*
X125476800Y-59600000D01*
%TD*%
M02*
