M48
; DRILL file {KiCad 8.0.4} date 2024-11-14T23:53:28+0200
; FORMAT={-:-/ absolute / inch / decimal}
; #@! TF.CreationDate,2024-11-14T23:53:28+02:00
; #@! TF.GenerationSoftware,Kicad,Pcbnew,8.0.4
; #@! TF.FileFunction,Plated,1,2,PTH
FMAT,2
INCH
; #@! TA.AperFunction,Plated,PTH,ViaDrill
T1C0.0118
; #@! TA.AperFunction,Plated,PTH,ComponentDrill
T2C0.0300
; #@! TA.AperFunction,Plated,PTH,ComponentDrill
T3C0.0315
; #@! TA.AperFunction,Plated,PTH,ComponentDrill
T4C0.0320
; #@! TA.AperFunction,Plated,PTH,ComponentDrill
T5C0.0340
; #@! TA.AperFunction,Plated,PTH,ComponentDrill
T6C0.0394
%
G90
G05
T1
X1.966Y-1.178
X2.034Y-1.202
X2.0813Y-1.052
X2.126Y-2.344
X2.16Y-1.054
X2.238Y-2.99
X2.252Y-2.094
X2.286Y-2.99
X2.322Y-2.566
X2.338Y-2.99
X2.364Y-2.146
X2.388Y-2.99
X2.494Y-2.534
X2.762Y-2.2876
X2.766Y-2.042
X2.802Y-2.494
X2.808Y-2.3112
X2.808Y-2.538
X2.81Y-2.58
X2.9Y-2.3349
X2.948Y-2.398
X2.978Y-2.43
X3.02Y-1.592
X3.1143Y-2.1963
X3.126Y-2.106
X3.126Y-2.364
X3.136Y-2.1464
X3.236Y-2.126
X3.278Y-2.884
X3.296Y-2.134
X3.3804Y-1.858
X3.492Y-2.396
X3.534Y-2.394
X3.666Y-2.386
X3.668Y-2.352
X3.67Y-2.428
X3.6733Y-1.6093
X3.692Y-2.102
X3.702Y-2.134
X3.704Y-2.166
X3.85Y-2.124
X3.986Y-1.6761
X4.005Y-2.78
X4.046Y-1.372
X4.18Y-1.62
X4.18Y-2.755
X4.2Y-1.7233
X4.24Y-2.364
X4.25Y-2.172
X4.25Y-2.5
X4.3043Y-1.3461
X4.3093Y-1.4697
X4.3293Y-1.6647
X4.3343Y-1.5447
X4.376Y-2.126
X4.378Y-1.372
X4.3793Y-1.4697
X4.3793Y-1.7847
X4.4143Y-1.7947
X4.448Y-1.694
X4.4594Y-2.2284
X4.488Y-2.2556
X4.5057Y-1.5747
X4.506Y-1.32
X4.5292Y-1.5347
X4.5529Y-1.5047
X4.554Y-1.72
X4.732Y-1.5946
X4.748Y-1.32
X4.7624Y-1.7728
X4.814Y-2.172
X4.8191Y-1.7495
X4.9443Y-1.3647
X4.95Y-2.118
X5.015Y-2.51
X5.0743Y-1.6197
X5.286Y-1.356
X5.3735Y-1.3555
X5.4443Y-1.2847
T2
X3.5529Y-1.849
X3.6529Y-1.849
X3.7529Y-1.849
X3.8529Y-1.849
X3.9529Y-1.849
X4.0529Y-1.849
X4.1529Y-1.849
X4.2529Y-1.849
X4.3529Y-1.849
X4.4529Y-1.849
X4.5529Y-1.849
X4.6529Y-1.849
T3
X1.9238Y-1.11
X2.0025Y-1.11
X2.0813Y-1.11
X2.16Y-1.11
T4
X1.8509Y-1.4235
X1.8509Y-2.0235
X1.9425Y-1.4235
X1.9425Y-2.0235
X2.0425Y-1.4235
X2.0425Y-2.0235
X2.1425Y-1.4235
X2.1425Y-2.0235
X2.2446Y-1.4235
X2.2477Y-2.0235
X2.3399Y-1.4235
X2.3431Y-2.0235
X2.4431Y-1.4235
X2.4431Y-2.0235
T5
X1.9291Y-2.4016
X1.9291Y-2.7266
X2.0291Y-2.4016
X2.0291Y-2.7266
X2.1291Y-2.4016
X2.1291Y-2.7266
X2.2291Y-2.4016
X2.2291Y-2.7266
X2.3291Y-2.4016
X2.3291Y-2.7266
X2.4291Y-2.4016
X2.4291Y-2.7266
X2.5291Y-2.4016
X2.5291Y-2.7266
X2.6291Y-2.4016
X2.6291Y-2.7266
X2.7291Y-2.4016
X2.7291Y-2.7266
X2.8291Y-2.4016
X2.8291Y-2.7266
T6
X2.5879Y-1.1041
X2.5879Y-1.2812
X2.5879Y-1.8127
X2.5879Y-1.9899
X2.8438Y-1.1041
X2.8438Y-1.2812
X2.8438Y-1.8127
X2.8438Y-1.9899
X2.9343Y-1.4997
X2.9343Y-1.5997
X3.1398Y-2.628
X3.1398Y-2.8051
X3.3957Y-2.628
X3.3957Y-2.8051
X3.648Y-2.014
X3.6791Y-2.628
X3.6791Y-2.8051
X3.748Y-2.014
X3.848Y-2.014
X3.935Y-2.628
X3.935Y-2.8051
X3.948Y-2.014
X4.048Y-2.014
X4.148Y-2.014
X4.2185Y-2.628
X4.2185Y-2.8051
X4.248Y-2.014
X4.348Y-2.014
X4.448Y-2.014
X4.4744Y-2.628
X4.4744Y-2.8051
X4.7815Y-2.628
X4.7815Y-2.8051
X5.0374Y-2.628
X5.0374Y-2.8051
X5.3438Y-1.1041
X5.3438Y-1.2812
X5.3438Y-1.8127
X5.3438Y-1.9899
X5.5997Y-1.1041
X5.5997Y-1.2812
X5.5997Y-1.8127
X5.5997Y-1.9899
M30
